<svg xmlns="http://www.w3.org/2000/svg" viewBox="0 0 44 44">
  <g fill="none" fill-rule="evenodd" transform="translate(4.5 1)">
    <path fill="#FFAC33" d="M20.4193434,0 C18.399706,0 16.4962477,0.476451346 14.7934622,1.30378681 C14.3334402,1.22281355 13.861683,1.17352548 13.3781905,1.17352548 C8.84134098,1.17352548 5.16351212,4.85135434 5.16351212,9.38820386 L5.16351212,23.4705096 L5.18463558,23.4705096 C5.39938981,31.0596989 11.6049935,37.1491227 19.2458179,37.1491227 C26.8866423,37.1491227 33.0922451,31.0596989 33.3070002,23.4705096 L33.3281237,23.4705096 L33.3281237,12.9087803 C33.3281237,5.779613 27.5485107,0 20.4193434,0"/>
    <path fill="#FFDC5D" d="M8.68408857,5.86762741 L8.68408857,19.9499332 C8.68408857,25.7835284 13.4122227,30.5116625 19.2458179,30.5116625 C25.0794131,30.5116625 29.8075473,25.7835284 29.8075473,19.9499332 L29.8075473,5.86762741 L8.68408857,5.86762741 Z"/>
    <path fill="#FFAC33" d="M29.8063737,5.86762741 L29.8063737,4.69410193 L7.51056309,4.69410193 L7.51056309,5.86762741 L7.51056309,12.9087803 C14.551716,12.9087803 14.551716,5.86762741 14.551716,5.86762741 C14.551716,5.86762741 16.8987669,14.0823058 30.9810727,14.0823058 L30.9810727,5.86762741 L29.8063737,5.86762741 Z"/>
    <path fill="#FFDC5D" d="M12.6991887,3.44441934 C12.0056351,2.98791792 11.0715088,3.18154963 10.6150074,3.87510319 L9.85808346,5.02750521 L9.85808346,2.34717301 C9.85808346,1.05042735 8.80660463,0.00012204665 7.5110325,0.00012204665 L2.81693151,0.00012204665 C1.52018585,0.00012204665 0.469880542,1.05042735 0.469880542,2.34717301 L0.469880542,11.7353769 C0.469880542,11.7353769 0.469880542,12.9089024 1.64340602,12.9089024 L8.68455798,12.9089024 L9.85808346,11.7353769 L9.85808346,10.5113898 L13.1298725,5.52860059 C13.5875474,4.83387351 13.3939157,3.90092075 12.6991887,3.44441934"/>
    <polygon fill="#EF9645" points="3.99 5.868 2.816 5.868 2.816 0 3.99 0"/>
    <polygon fill="#EF9645" points="7.511 5.868 6.337 5.868 6.337 0 7.511 0"/>
    <path fill="#9268CA" d="M29.8075473,31.685188 L9.85761405,31.685188 L8.68408857,31.685188 L9.85761405,11.7352548 L0.469410193,11.7352548 L0.469410193,31.685188 C0.469410193,31.685188 0.469410193,42.2469174 9.85761405,42.2469174 L34.5016492,42.2469174 L34.5016492,36.37929 C34.5016492,33.7869722 32.399865,31.685188 29.8075473,31.685188"/>
    <path fill="#C1694F" d="M20.4193434,22.8837469 L18.0722924,22.8837469 C17.7483994,22.8837469 17.4855297,22.6208772 17.4855297,22.2969842 C17.4855297,21.9730911 17.7483994,21.7102214 18.0722924,21.7102214 L20.4193434,21.7102214 C20.7432364,21.7102214 21.0061061,21.9730911 21.0061061,22.2969842 C21.0061061,22.6208772 20.7432364,22.8837469 20.4193434,22.8837469"/>
    <path fill="#662113" d="M14.551716 18.7764077C13.9039299 18.7764077 13.3781905 18.2506683 13.3781905 17.6028822L13.3781905 16.4293568C13.3781905 15.7815707 13.9039299 15.2558313 14.551716 15.2558313 15.199502 15.2558313 15.7252415 15.7815707 15.7252415 16.4293568L15.7252415 17.6028822C15.7252415 18.2506683 15.199502 18.7764077 14.551716 18.7764077M23.9399198 18.7764077C23.2909602 18.7764077 22.7663944 18.2506683 22.7663944 17.6028822L22.7663944 16.4293568C22.7663944 15.7815707 23.2909602 15.2558313 23.9399198 15.2558313 24.5888794 15.2558313 25.1134453 15.7815707 25.1134453 16.4293568L25.1134453 17.6028822C25.1134453 18.2506683 24.5888794 18.7764077 23.9399198 18.7764077"/>
    <path fill="#FFDC5D" d="M15.7252415,25.8175606 L15.7252415,32.8587135 C15.7252415,34.8032452 17.3012862,36.37929 19.2458179,36.37929 C21.1903496,36.37929 22.7663944,34.8032452 22.7663944,32.8587135 L22.7663944,25.8175606 L15.7252415,25.8175606 Z"/>
    <path fill="#DF1F32" d="M23.9399198,25.8175606 L19.2458179,25.8175606 L14.551716,25.8175606 C14.551716,25.8175606 15.7252415,28.1646116 19.2458179,28.1646116 C22.7663944,28.1646116 23.9399198,25.8175606 23.9399198,25.8175606"/>
    <polygon fill="#7450A8" points="29.808 42.247 28.634 42.247 28.634 37.553 29.808 37.553"/>
  </g>
</svg>
