<svg xmlns="http://www.w3.org/2000/svg" width="389" height="89" viewBox="0 0 389 89">
  <g fill="none" fill-rule="evenodd" stroke="#FA5F4B" stroke-width="4">
    <ellipse cx="251.22" cy="44.136" rx="40.739" ry="40.022"/>
    <path d="M29.3333333,1.00100315 L29.3333333,17.1876353" transform="rotate(-25 30 9.177)"/>
    <path d="M27.9672063,7.35671374 C20.6370501,7.77960736 10.6285677,14.2639762 10.7695323,25.2592104 C10.9104968,36.2544446 19.3683693,41.6110972 26.8394899,46.1219625 C34.3106106,50.6328278 40.3720859,53.3111541 42.486554,58.1039485 C44.6010221,62.8967429 42.6275185,68.39436 37.9756887,71.0726863 C35.6625672,72.4044835 31.3503553,72.9052253 27.2623836,71.4955799 C23.1744119,70.0859345 20.2141565,66.561821 20.2141565,61.9099911 L7.1044542,61.9099911 C6.96348966,70.226899 11.7562841,76.7112679 18.6635466,80.0944169 C22.1266355,81.7906237 27.361445,83.0939595 32.4137455,83.0365996 C37.4384505,82.9795529 42.2826347,81.5704913 45.0239157,80.0944169 C48.6088723,78.1640557 53.9768313,74.4442511 56.0191499,66.4208564 C57.9926535,58.6678067 54.3477345,50.7585828 48.4070647,46.1219625 C42.6275185,41.6110972 37.1299014,39.2147 37.1299014,39.2147 L26.4165963,45.6990689"/>
    <path d="M110.333333,1.00100315 L110.333333,17.1876353" transform="rotate(-25 111 9.177)"/>
    <path d="M91.9916841,13.0665528 C93.3227648,15.6182706 94.5583135,19.2140581 94.4922173,23.7086005 C94.3512528,33.2941893 88.2897775,35.831551 88.2897775,44.9942462 C88.2897775,54.1569414 93.9283592,58.3858776 94.2102882,66.561821 C94.4922173,74.7377643 87.7259193,82.4908141 87.7259193,82.4908141"/>
    <path d="M109.07481 7.49767828C109.07481 7.49767828 102.87237 14.1230117 94.9783561 13.8410826 87.0843418 13.5591535 81.4457602 6.36996195 71.5782423 6.36996195 61.7107244 6.36996195 51.5612775 15.9555507 51.5612775 15.9555507L57.0588946 27.7965722C57.0588946 27.7965722 65.516767 20.8893097 70.3095614 20.184487 75.1023558 19.4796643 79.953827 22.7413511 79.953827 22.7413511 79.9623465 23.058967 79.9644331 23.3814022 79.9596214 23.7086005 79.8186568 33.2941893 73.7571816 35.831551 73.7571816 44.9942462 73.7571816 54.1569414 79.3957632 58.3858776 79.6776923 66.561821 79.9596214 74.7377643 73.1288522 82.4908141 73.1288522 82.4908141L98.8108951 81.9269559M352.472345 45.8400334L322.305934 6.36996195 306.645621 6.36996195 306.645621 82.4908141 322.305934 82.4908141 322.305934 31.7435793 344.296402 61.0642039 373.617027 8.62539461C373.617027 8.62539461 379.396573 14.1230117 379.255608 23.7086005 379.114644 33.2941893 373.053168 35.831551 373.053168 44.9942462 373.053168 54.1569414 378.69175 58.3858776 378.973679 66.561821 379.255608 74.7377643 372.48931 82.4908141 372.48931 82.4908141"/>
    <path d="M248.963359,23.0449855 C248.963359,23.0449855 254.742905,28.5426026 254.601941,38.1281913 C254.460976,47.7137801 248.399501,50.2511419 248.399501,59.413837 C248.399501,68.5765322 254.038083,72.8054684 254.320012,80.9814118 C254.601941,89.1573552 247.835643,96.9104049 247.835643,96.9104049" transform="scale(1 -1) rotate(90 311.198 0)"/>
    <path d="M366.850729,81 L385.176119,81"/>
    <ellipse cx="158.96" cy="44.136" rx="40.739" ry="40.022"/>
    <path d="M141.75415,8.62539461 C141.75415,8.62539461 147.533696,14.1230117 147.392731,23.7086005 C147.251767,33.2941893 141.190292,35.831551 141.190292,44.9942462 C141.190292,54.1569414 146.828873,58.3858776 147.110802,66.561821 C147.312581,72.413407 143.903993,78.048371 141.949615,80.7793869"/>
  </g>
</svg>
