<svg xmlns="http://www.w3.org/2000/svg" width="389" height="89" viewBox="0 0 389 89">
  <g fill="none" fill-rule="evenodd" stroke="#6EC3C8" stroke-width="5">
    <ellipse cx="251.22" cy="45.136" rx="40.739" ry="40.022"/>
    <path d="M29.6666667,2.00100315 L29.6666667,18.1876353" transform="rotate(-25 30.5 10.177)"/>
    <path d="M27.9672063,8.35671374 C20.6370501,8.77960736 10.6285677,15.2639762 10.7695323,26.2592104 C10.9104968,37.2544446 19.3683693,42.6110972 26.8394899,47.1219625 C34.3106106,51.6328278 40.3720859,54.3111541 42.486554,59.1039485 C44.6010221,63.8967429 42.6275185,69.39436 37.9756887,72.0726863 C35.6625672,73.4044835 31.3503553,73.9052253 27.2623836,72.4955799 C23.1744119,71.0859345 20.2141565,67.561821 20.2141565,62.9099911 L7.1044542,62.9099911 C6.96348966,71.226899 11.7562841,77.7112679 18.6635466,81.0944169 C22.1266355,82.7906237 27.361445,84.0939595 32.4137455,84.0365996 C37.4384505,83.9795529 42.2826347,82.5704913 45.0239157,81.0944169 C48.6088723,79.1640557 53.9768313,75.4442511 56.0191499,67.4208564 C57.9926535,59.6678067 54.3477345,51.7585828 48.4070647,47.1219625 C42.6275185,42.6110972 37.1299014,40.2147 37.1299014,40.2147 L26.4165963,46.6990689"/>
    <path d="M110.666667,2.00100315 L110.666667,18.1876353" transform="rotate(-25 111.5 10.177)"/>
    <path d="M91.9916841,14.0665528 C93.3227648,16.6182706 94.5583135,20.2140581 94.4922173,24.7086005 C94.3512528,34.2941893 88.2897775,36.831551 88.2897775,45.9942462 C88.2897775,55.1569414 93.9283592,59.3858776 94.2102882,67.561821 C94.4922173,75.7377643 87.7259193,83.4908141 87.7259193,83.4908141"/>
    <path d="M109.07481 8.49767828C109.07481 8.49767828 102.87237 15.1230117 94.9783561 14.8410826 87.0843418 14.5591535 81.4457602 7.36996195 71.5782423 7.36996195 61.7107244 7.36996195 51.5612775 16.9555507 51.5612775 16.9555507L57.0588946 28.7965722C57.0588946 28.7965722 65.516767 21.8893097 70.3095614 21.184487 75.1023558 20.4796643 79.953827 23.7413511 79.953827 23.7413511 79.9623465 24.058967 79.9644331 24.3814022 79.9596214 24.7086005 79.8186568 34.2941893 73.7571816 36.831551 73.7571816 45.9942462 73.7571816 55.1569414 79.3957632 59.3858776 79.6776923 67.561821 79.9596214 75.7377643 73.1288522 83.4908141 73.1288522 83.4908141L98.8108951 82.9269559M352.472345 46.8400334L322.305934 7.36996195 306.645621 7.36996195 306.645621 83.4908141 322.305934 83.4908141 322.305934 32.7435793 344.296402 62.0642039 373.617027 9.62539461C373.617027 9.62539461 379.396573 15.1230117 379.255608 24.7086005 379.114644 34.2941893 373.053168 36.831551 373.053168 45.9942462 373.053168 55.1569414 378.69175 59.3858776 378.973679 67.561821 379.255608 75.7377643 372.48931 83.4908141 372.48931 83.4908141"/>
    <path d="M248.963359,27.0449855 C248.963359,27.0449855 254.742905,32.5426026 254.601941,42.1281913 C254.460976,51.7137801 248.399501,54.2511419 248.399501,63.413837 C248.399501,72.5765322 254.038083,76.8054684 254.320012,84.9814118 C254.601941,93.1573552 247.835643,100.910405 247.835643,100.910405" transform="scale(1 -1) rotate(90 315.198 0)"/>
    <path d="M366.850729,82.5 L385.176119,82.5"/>
    <ellipse cx="158.96" cy="45.136" rx="40.739" ry="40.022"/>
    <path d="M143.75415,9.62539461 C143.75415,9.62539461 149.533696,15.1230117 149.392731,24.7086005 C149.251767,34.2941893 143.190292,36.831551 143.190292,45.9942462 C143.190292,55.1569414 148.828873,59.3858776 149.110802,67.561821 C149.392731,75.7377643 142.626434,83.4908141 142.626434,83.4908141"/>
  </g>
</svg>
