<svg xmlns="http://www.w3.org/2000/svg" width="389" height="89" viewBox="0 0 389 89">
  <path fill="#6EC3C8" fill-rule="evenodd" d="M21.4287,5.429 L19.6186,1.7759 L23.2028,0 C25.8101,5.2622 28.4175,10.5243 31.0248,15.7864 L27.4406,17.5623 L23.2628,9.1307 C23.1075,9.1602 23.0774,9.1661 22.8705,9.2074 C22.6336,9.257 22.634,9.2569 22.3972,9.3089 C21.6139,9.4888 20.8389,9.6989 20.0766,9.9544 C18.5108,10.4793 17.0028,11.1805 15.6132,12.0749 C14.2978,12.9216 13.0922,13.9405 12.0549,15.1123 C11.2597,16.0106 10.5634,16.9962 9.9868,18.0484 C9.1448,19.5849 8.5594,21.2589 8.259,22.985 C8.0135,24.3962 7.958,25.839 8.0955,27.2647 C8.2757,29.1329 8.7604,30.9715 9.5161,32.6891 C9.7878,33.3067 10.0942,33.9088 10.4314,34.4932 C10.6845,34.9318 10.9549,35.3605 11.2406,35.7786 C13.1987,38.6443 15.8379,40.9714 18.6267,43.0032 C19.0989,43.3473 19.5769,43.6834 20.0586,44.014 C20.7745,44.5055 21.501,44.9814 22.2312,45.4513 L22.3103,45.5018 L33.8662,38.3486 C34.5125,38.6911 35.1591,39.0331 35.8045,39.3774 C37.0407,40.0418 38.2708,40.7172 39.4849,41.4213 C40.467,41.9908 41.4392,42.5777 42.3963,43.1885 C43.1253,43.6538 43.8456,44.1329 44.5539,44.6291 C45.1147,45.022 45.668,45.4255 46.2118,45.8414 C49.1017,48.0512 51.7708,50.6397 53.6652,53.7696 C53.9191,54.189 54.1584,54.6173 54.3817,55.0538 C54.681,55.6391 54.9515,56.2393 55.1898,56.852 C55.5998,57.9061 55.914,58.997 56.1258,60.108 C56.1902,60.4454 56.2451,60.7846 56.2907,61.1251 C56.3234,61.3691 56.3499,61.6138 56.3801,61.8582 C56.4288,62.2328 56.4791,62.6072 56.5264,62.982 C56.5853,63.471 56.6365,63.9609 56.6564,64.4533 C56.6837,65.1281 56.6672,65.806 56.6221,66.4797 C56.5291,67.8662 56.2981,69.2424 55.9486,70.587 C55.4125,72.649 54.5971,74.6382 53.5299,76.4823 C52.2741,78.6523 50.6667,80.6161 48.776,82.2636 C47.2875,83.5605 45.6255,84.658 43.8512,85.5234 C43.107,85.8864 42.3428,86.2087 41.5632,86.4879 C40.9429,86.71 40.3119,86.9004 39.6798,87.0856 C39.0251,87.2774 38.3673,87.4581 37.7054,87.6233 C35.609,88.1465 33.4735,88.5082 31.3173,88.6611 C28.715,88.8455 26.0975,88.7294 23.5152,88.3666 C21.6436,88.1036 19.7881,87.7156 17.9767,87.1749 C17.7675,87.1103 17.5594,87.0429 17.3505,86.9773 C17.023,86.8745 16.6934,86.7781 16.3658,86.6754 C15.2325,86.306 14.1284,85.8449 13.062,85.3129 C11.0687,84.3187 9.208,83.0593 7.5508,81.5705 C5.1241,79.3904 3.1345,76.7161 1.8165,73.7278 C1.3876,72.7553 1.0298,71.7514 0.7499,70.7258 C0.4736,69.7131 0.272,68.6792 0.1534,67.6361 C0.0743,66.9399 0.0355,66.2407 0.0233,65.5403 L0,63.3874 L0.0111,63.3761 L18.005,63.2822 L18.0222,65.4028 C18.0247,65.5301 18.031,65.657 18.0384,65.7841 C18.0708,66.1647 18.1284,66.5404 18.2221,66.911 C18.7014,68.8073 19.9484,70.4447 21.4763,71.632 C21.747,71.8424 22.0278,72.0397 22.3172,72.2235 C22.6417,72.4297 22.977,72.6187 23.3212,72.79 C24.4957,73.3747 25.7701,73.75 27.0722,73.9076 C28.114,74.0336 29.1736,74.0202 30.2156,73.9025 C31.2079,73.7905 32.1919,73.5686 33.1205,73.1976 C34.0271,72.8354 34.8742,72.3264 35.6088,71.6823 C36.6964,70.7285 37.5193,69.4949 38.0462,68.1516 C38.2533,67.6235 38.4138,67.0764 38.5223,66.5196 C38.609,66.0747 38.6634,65.6222 38.6677,65.1687 C38.6718,64.7305 38.6145,64.2958 38.541,63.8646 C38.4119,63.1065 38.1851,62.3632 37.8585,61.6667 C37.2008,60.2638 36.1389,59.1003 34.9655,58.1078 C33.7713,57.0976 32.4545,56.2383 31.1187,55.4296 C29.6513,54.5411 28.1514,53.7073 26.6643,52.8526 C26.3669,52.6793 26.0699,52.5054 25.7733,52.3309 L25.3293,52.0668 C24.7234,51.702 24.1204,51.3325 23.5168,50.964 C22.6632,50.441 21.8108,49.9163 20.9629,49.3841 C20.2309,48.9245 19.5039,48.4566 18.7837,47.9786 C15.4462,45.7636 12.2212,43.2951 9.6158,40.2287 C9.2774,39.8303 8.9499,39.4225 8.635,39.0052 C8.2466,38.4905 7.8772,37.9613 7.5297,37.4181 C7.0312,36.6386 6.5775,35.8304 6.1759,34.9968 C5.1476,32.8627 4.4681,30.5647 4.1763,28.2134 C3.9482,26.3754 3.9735,24.5095 4.2559,22.6789 C4.5927,20.4955 5.2933,18.3716 6.3227,16.4169 C7.1351,14.8742 8.1513,13.4406 9.3328,12.1588 C10.6606,10.7182 12.1949,9.4736 13.8644,8.4499 C15.6569,7.3508 17.6007,6.5094 19.6133,5.9051 C20.2131,5.725 20.8187,5.5677 21.4287,5.429 Z M26.1047,47.8574 C26.5303,48.1173 26.9553,48.3783 27.3833,48.6344 C27.8096,48.8896 28.2385,49.1404 28.6677,49.3905 C29.6931,49.9798 30.7218,50.5635 31.7467,51.1537 C33.4678,52.1572 35.1774,53.1908 36.7549,54.4121 C37.8967,55.2961 38.9688,56.2804 39.8735,57.4091 C40.3888,58.0521 40.8485,58.7403 41.2323,59.4697 C41.6875,60.3345 42.0359,61.254 42.2744,62.2015 C42.3914,62.6669 42.4816,63.1382 42.5508,63.6129 C42.6127,64.0375 42.6555,64.4653 42.6656,64.8944 C42.6845,65.6955 42.6017,66.498 42.4487,67.2839 C41.9447,69.871 40.6677,72.323 38.7926,74.1803 C37.9056,75.059 36.8842,75.7994 35.7768,76.3755 C34.0474,77.2752 32.1254,77.7589 30.189,77.9245 C29.2524,78.0046 28.3091,78.021 27.3712,77.9536 C26.3927,77.8833 25.4209,77.7236 24.4721,77.4735 C21.0853,76.5806 17.9748,74.5124 16.0129,71.5885 C15.7441,71.188 15.4979,70.7722 15.2771,70.3432 C14.7832,69.3834 14.4223,68.3611 14.2126,67.3021 L4.1483,67.3546 C4.2664,68.2881 4.4631,69.2108 4.735,70.1116 C4.9545,70.839 5.2223,71.5518 5.5348,72.2444 C5.792,72.8145 6.0791,73.3711 6.3936,73.9117 C8.2674,77.132 11.0983,79.7533 14.3825,81.4943 C15.4625,82.0668 16.5933,82.555 17.7602,82.9206 C18.0229,83.0008 18.2864,83.0786 18.5485,83.1609 C18.7455,83.2227 18.9417,83.2865 19.139,83.3475 C20.6963,83.8123 22.2913,84.1469 23.8991,84.3808 C26.3199,84.7329 28.7767,84.8453 31.2171,84.6576 C33.1863,84.5061 35.1336,84.157 37.0451,83.6641 C37.6506,83.5079 38.2524,83.3382 38.8515,83.1592 C39.3743,83.0031 39.895,82.8417 40.4067,82.652 C40.9819,82.4389 41.5464,82.197 42.0977,81.9281 C43.5568,81.2165 44.9241,80.3144 46.1482,79.2477 C47.7077,77.889 49.0321,76.2684 50.0678,74.4787 C50.9004,73.0399 51.5455,71.4965 51.9925,69.8957 C52.3136,68.7459 52.5282,67.5639 52.6194,66.3733 C52.6641,65.7893 52.6834,65.2005 52.6596,64.6151 C52.6465,64.2906 52.6138,63.9676 52.5774,63.645 C52.5258,63.2166 52.4665,62.7892 52.4118,62.3611 C52.3775,62.0926 52.349,61.8234 52.3122,61.5552 C52.1889,60.7027 51.9993,59.8591 51.7271,59.0414 C51.5208,58.4216 51.2776,57.8154 50.9946,57.2265 C50.2043,55.5816 49.1283,54.0877 47.9027,52.7404 C46.3917,51.0796 44.657,49.6322 42.8401,48.3188 C42.1911,47.8497 41.5301,47.3974 40.8603,46.9585 C39.9638,46.3712 39.0514,45.8082 38.1289,45.2625 C36.8906,44.5301 35.6329,43.8318 34.3681,43.1465 L34.0185,42.9587 C31.3805,44.5916 28.7426,46.2245 26.1047,47.8574 Z M153.577,3.1901 C154.329,3.1987 155.08,3.2178 155.831,3.2591 C157.126,3.3303 158.417,3.4573 159.701,3.6391 C164.069,4.2578 168.346,5.5219 172.345,7.3876 C177.553,9.8178 182.285,13.2672 186.174,17.5017 C189.577,21.2077 192.326,25.5112 194.229,30.17 C195.887,34.2282 196.89,38.554 197.193,42.9269 C197.48,47.0584 197.15,51.2343 196.206,55.2671 C195.414,58.651 194.191,61.9305 192.584,65.012 C191.226,67.6163 189.59,70.0754 187.725,72.3439 C185.742,74.7567 183.497,76.9509 181.047,78.8872 C177.135,81.9782 172.687,84.3943 167.972,86.0108 C163.347,87.596 158.464,88.4143 153.577,88.4441 C148.764,88.4734 143.946,87.7406 139.365,86.261 C134.668,84.7438 130.226,82.437 126.286,79.4633 C123.799,77.5862 121.513,75.4433 119.481,73.0808 C117.538,70.8226 115.828,68.364 114.397,65.7512 C112.666,62.5904 111.352,59.2098 110.487,55.7119 C110.182,54.4788 109.938,53.23 109.75,51.9738 C109.327,49.1429 109.197,46.2682 109.362,43.4106 C109.615,39.0301 110.569,34.6923 112.18,30.6107 C114.024,25.9375 116.723,21.6101 120.077,17.8714 C123.909,13.5984 128.595,10.1012 133.766,7.6129 C137.728,5.7062 141.975,4.3943 146.32,3.7227 C147.605,3.5241 148.899,3.3807 150.196,3.2935 C150.944,3.2432 151.693,3.2149 152.443,3.197 C152.821,3.1921 153.199,3.1898 153.577,3.1901 Z M131.76,78.3694 C134.527,80.0802 137.502,81.4555 140.595,82.4546 C144.625,83.7562 148.856,84.4232 153.09,84.4444 C157.546,84.4667 162.006,83.7708 166.238,82.3738 C170.571,80.9436 174.658,78.7736 178.268,75.9822 C180.476,74.2743 182.504,72.3329 184.306,70.1997 C186.022,68.1664 187.533,65.9587 188.796,63.6164 C190.342,60.7502 191.51,57.6874 192.272,54.5214 C193.145,50.8906 193.455,47.1203 193.216,43.3948 C192.962,39.4434 192.075,35.533 190.598,31.8593 C188.901,27.6378 186.431,23.735 183.374,20.3674 C179.867,16.5048 175.589,13.3508 170.876,11.1169 C167.325,9.4341 163.526,8.2691 159.642,7.6738 C158.389,7.4818 157.129,7.3455 155.864,7.2678 C155.178,7.2258 154.493,7.2043 153.806,7.193 C153.549,7.19 153.292,7.1899 153.034,7.1908 C151.07,7.2075 149.109,7.3513 147.166,7.6402 C143.326,8.2112 139.568,9.3302 136.044,10.9606 C134.574,11.6409 133.145,12.4104 131.767,13.2629 L131.767,78.211 C131.765,78.2637 131.764,78.3167 131.76,78.3694 Z M127.767,16.0874 C126.255,17.3 124.83,18.6222 123.51,20.0432 C120.403,23.3885 117.883,27.2801 116.135,31.4993 C114.636,35.1171 113.713,38.9717 113.408,42.8755 C113.118,46.5671 113.376,50.3028 114.176,53.9185 C114.862,57.019 115.948,60.0292 117.391,62.8573 C118.627,65.2783 120.125,67.5639 121.842,69.6707 C123.603,71.832 125.594,73.8023 127.767,75.5476 L127.767,16.0874 Z M250.605,3.1901 C251.357,3.1987 252.109,3.2178 252.86,3.2591 C254.154,3.3303 255.446,3.4573 256.73,3.6391 C261.098,4.2577 265.375,5.5219 269.373,7.3876 C274.582,9.8177 279.315,13.2671 283.203,17.5019 C286.605,21.2081 289.356,25.5111 291.258,30.1703 C292.915,34.2287 293.918,38.5539 294.222,42.9269 C294.509,47.0586 294.178,51.2336 293.235,55.2667 C292.443,58.6507 291.219,61.931 289.613,65.0122 C288.255,67.6164 286.619,70.0754 284.754,72.3439 C282.682,74.8644 280.325,77.1507 277.743,79.1466 C273.909,82.1112 269.585,84.4391 265,86.0108 C260.376,87.596 255.493,88.4143 250.605,88.4441 C245.792,88.4734 240.975,87.7408 236.394,86.261 C231.697,84.7436 227.255,82.4371 223.315,79.4633 C220.827,77.5862 218.542,75.4432 216.509,73.0809 C214.567,70.8228 212.857,68.364 211.426,65.7514 C209.695,62.5908 208.381,59.2097 207.516,55.7119 C207.211,54.4788 206.967,53.23 206.779,51.9738 C206.356,49.1429 206.226,46.2682 206.391,43.4106 C206.644,39.0303 207.597,34.6917 209.209,30.6104 C211.053,25.9373 213.752,21.6103 217.105,17.8714 C220.938,13.5985 225.623,10.1008 230.795,7.6129 C234.757,5.7063 239.004,4.3943 243.349,3.7227 C244.634,3.5241 245.927,3.3807 247.225,3.2935 C247.973,3.2432 248.722,3.2149 249.472,3.197 C249.85,3.1921 250.227,3.1898 250.605,3.1901 Z M228.789,78.3678 C231.555,80.0786 234.529,81.4549 237.624,82.4547 C241.653,83.7564 245.885,84.4232 250.119,84.4444 C254.728,84.4675 259.342,83.722 263.703,82.227 C267.874,80.7971 271.808,78.6792 275.297,75.9821 C277.505,74.2745 279.533,72.3328 281.334,70.1997 C283.051,68.1665 284.562,65.9589 285.825,63.6166 C287.371,60.7501 288.539,57.6877 289.301,54.5216 C289.542,53.5184 289.738,52.5038 289.893,51.4838 C290.3,48.8106 290.417,46.0933 290.244,43.3948 C289.991,39.443 289.103,35.5333 287.627,31.859 C285.93,27.6379 283.46,23.7343 280.403,20.3675 C276.895,16.5051 272.618,13.351 267.904,11.1169 C264.354,9.4341 260.554,8.2691 256.671,7.6738 C255.418,7.4818 254.157,7.3455 252.892,7.2678 C252.207,7.2258 251.521,7.2043 250.835,7.193 C250.578,7.19 250.32,7.1899 250.063,7.1908 C248.099,7.2075 246.138,7.3513 244.194,7.6402 C240.354,8.2111 236.597,9.3302 233.073,10.9606 C231.603,11.6409 230.174,12.4105 228.796,13.263 L228.796,78.211 C228.793,78.2632 228.792,78.3156 228.789,78.3678 Z M224.796,16.0876 C223.283,17.3002 221.858,18.6224 220.539,20.0433 C217.432,23.3879 214.911,27.2802 213.164,31.4991 C211.641,35.1767 210.713,39.0973 210.422,43.067 C210.152,46.7532 210.427,50.481 211.242,54.0864 C211.929,57.1274 213.003,60.0804 214.42,62.8571 C215.656,65.2782 217.154,67.5637 218.871,69.6708 C220.631,71.8317 222.622,73.8042 224.796,75.5482 L224.796,16.0876 Z M324.397,87.5326 L305.397,87.5326 L305.397,5.84 L323.147,5.7614 C333.236,19.1063 343.325,32.4512 353.414,45.796 L375.248,6.5515 L378.743,8.4962 L378.75,8.5065 C378.786,8.5521 378.821,8.5978 378.856,8.6435 C379.575,9.5897 380.23,10.5817 380.81,11.6195 C382.636,14.8871 383.736,18.5509 384.084,22.2745 C384.289,24.4803 384.237,26.7216 383.869,28.9079 C383.676,30.0557 383.372,31.182 382.999,32.2837 C382.661,33.2828 382.265,34.2608 381.858,35.2333 C381.515,36.0427 381.167,36.8498 380.828,37.6606 C380.476,38.5117 380.135,39.3677 379.836,40.2392 C379.531,41.1287 379.269,42.0331 379.068,42.9518 C378.717,44.5563 378.561,46.1976 378.598,47.8396 C378.628,49.1958 378.789,50.5479 379.097,51.8694 C379.327,52.8546 379.637,53.8187 379.995,54.7642 C380.491,56.0705 381.072,57.3421 381.623,58.6253 C381.739,58.8979 381.854,59.1709 381.968,59.4445 C382.386,60.4701 382.775,61.507 383.093,62.5684 C383.488,63.8859 383.776,65.2337 383.949,66.5981 C384.211,68.6524 384.221,70.7371 383.973,72.7933 C383.709,74.9936 383.15,77.1546 382.341,79.2171 C381.755,80.712 381.039,82.1543 380.216,83.5326 L388.872,83.5326 L388.872,87.5326 L369.802,87.5326 L369.802,83.5326 L375.429,83.5326 C375.87,82.9202 376.29,82.2926 376.682,81.6472 C377.609,80.1203 378.385,78.5002 378.966,76.81 C379.466,75.353 379.818,73.845 380.002,72.3154 C380.266,70.1206 380.184,67.8825 379.757,65.7132 C379.526,64.5348 379.186,63.3816 378.772,62.2547 C378.223,60.759 377.553,59.3114 376.928,57.8469 C376.813,57.5745 376.7,57.3016 376.588,57.028 C376.339,56.4095 376.1,55.7873 375.885,55.156 C375.564,54.21 375.294,53.2466 375.089,52.2685 C374.776,50.7729 374.617,49.248 374.595,47.7206 C374.573,46.1363 374.699,44.5517 374.981,42.9924 C375.23,41.6162 375.599,40.2645 376.052,38.9422 C376.412,37.8934 376.825,36.8647 377.253,35.8422 C377.595,35.0343 377.942,34.2288 378.281,33.4198 C378.975,31.7458 379.622,30.0388 379.924,28.2444 C380.046,27.5199 380.124,26.7876 380.166,26.0542 C380.233,24.8722 380.204,23.6849 380.087,22.5069 C379.773,19.3358 378.821,16.2151 377.245,13.4412 C377.038,13.076 376.819,12.7177 376.59,12.3663 L346.31,66.7938 L345.207,66.8671 L324.397,38.9471 L324.397,87.5326 Z M351.288,49.617 L321.163,9.7702 L309.397,9.8223 L309.397,83.5326 L320.397,83.5326 L320.397,30.6005 L322.616,29.8645 L345.326,60.3337 C347.314,56.7615 349.301,53.1892 351.288,49.617 Z M102.22,5.8568 L100.198,1.7759 L103.782,0 C106.389,5.2622 108.996,10.5243 111.604,15.7864 L108.02,17.5623 L104.023,9.4957 C103.687,9.7414 103.351,9.9857 103.013,10.2281 C102.296,10.7421 101.573,11.2469 100.839,11.7357 C100.346,12.0636 99.8492,12.384 99.3463,12.6957 C98.9355,12.9503 98.5189,13.1962 98.0976,13.433 C95.9529,14.6383 93.628,15.6248 91.1601,15.8779 C90.7846,15.9164 90.4075,15.9376 90.0301,15.9409 C89.4382,15.9461 88.8448,15.9096 88.2582,15.8295 C88.0705,15.8039 87.8835,15.7742 87.6969,15.7415 C88.4956,18.0226 88.9879,20.4117 89.1643,22.8213 C89.2638,24.1822 89.2622,25.5511 89.1506,26.9111 C89.0913,27.634 89.0027,28.3555 88.876,29.0698 C88.6823,30.1617 88.3897,31.2338 88.0341,32.2836 C87.6958,33.2828 87.3006,34.2608 86.8929,35.2334 C86.5502,36.0427 86.2023,36.8498 85.8631,37.6607 C85.5666,38.3769 85.2779,39.0964 85.0164,39.8263 C84.6672,40.8011 84.3646,41.7931 84.136,42.8035 C83.7624,44.4552 83.5954,46.1466 83.6332,47.8395 C83.6634,49.1959 83.8242,50.5479 84.1323,51.8696 C84.3619,52.8548 84.672,53.8188 85.0305,54.7643 C85.5258,56.0706 86.1074,57.3423 86.6586,58.6254 C86.7746,58.8979 86.8893,59.1709 87.0028,59.4445 C87.4211,60.4701 87.81,61.5069 88.1282,62.5683 C88.5232,63.8857 88.8109,65.2336 88.9845,66.598 C89.2532,68.7096 89.2562,70.8535 88.9871,72.9652 C88.7143,75.1063 88.1644,77.2082 87.3766,79.217 C86.8877,80.4639 86.3082,81.6742 85.6517,82.8412 L91.5252,82.8412 L91.5252,86.8412 L66.574,86.8412 L66.574,82.8412 C66.7222,82.6337 66.7393,82.6271 66.8952,82.4045 C67.0507,82.1776 67.0504,82.1781 67.204,81.9492 C67.5799,81.3772 67.9399,80.7958 68.274,80.1984 C69.001,78.8984 69.6165,77.5351 70.0928,76.1235 C70.5975,74.6278 70.9444,73.0789 71.112,71.5089 C71.3446,69.3303 71.2322,67.112 70.7782,64.9685 C70.5341,63.8157 70.1847,62.689 69.7688,61.5872 C69.2444,60.198 68.6225,58.8483 68.04,57.4832 C67.9262,57.2136 67.8139,56.9435 67.703,56.6727 C67.4176,55.9626 67.1459,55.2473 66.9079,54.5198 C66.5968,53.5686 66.34,52.5998 66.1499,51.617 C65.9107,50.3804 65.7773,49.1246 65.7392,47.8658 C65.7046,46.724 65.746,45.5801 65.87,44.4444 C65.9894,43.35 66.1859,42.2648 66.4507,41.1963 C66.7704,39.9062 67.1912,38.6439 67.6687,37.4041 C68.2019,36.0198 68.8053,34.6642 69.3785,33.2964 C69.4842,33.0412 69.5889,32.7858 69.6923,32.5297 C70.174,31.3159 70.6123,30.0826 70.8846,28.8031 C70.9986,28.2674 71.081,27.7253 71.1428,27.1812 C71.2641,26.1141 71.2975,25.0402 71.2632,23.9672 L71.263,23.9618 C71.2303,23.9396 71.2306,23.9398 71.1975,23.9179 C70.9944,23.8201 70.7902,23.7247 70.5854,23.6303 C70.1075,23.4141 69.6241,23.2108 69.129,23.0367 C68.4735,22.8062 67.8015,22.6222 67.1199,22.4868 C66.4641,22.3565 65.8043,22.2686 65.1349,22.2646 C63.2426,22.2532 61.4046,22.8624 59.7136,23.6704 C58.5542,24.2243 57.4446,24.8787 56.367,25.577 C55.1151,26.3882 53.9051,27.2626 52.7152,28.1616 C51.7275,28.9079 50.752,29.671 49.7731,30.4285 L49.2875,30.3207 L41.4756,15.1477 C42.2075,14.5811 42.9383,14.0133 43.6726,13.4499 C44.2531,13.0068 44.8359,12.5669 45.4248,12.1351 C45.9418,11.7562 46.4627,11.3826 46.9886,11.0162 C50.3519,8.6728 53.956,6.5889 57.8929,5.3776 C58.6337,5.1497 59.3842,4.9531 60.1423,4.7917 C61.123,4.5829 62.1165,4.4331 63.1156,4.3481 C63.6143,4.3056 64.1135,4.2837 64.6138,4.2688 C64.8533,4.2659 65.0927,4.2647 65.3321,4.2654 C66.0298,4.2795 66.7263,4.3123 67.4207,4.3834 C68.2362,4.467 69.0476,4.5943 69.8512,4.7557 C71.576,5.1022 73.2664,5.6012 74.9007,6.2524 C75.7641,6.5964 76.6111,6.9797 77.4455,7.3887 C78.6029,7.956 79.7376,8.5679 80.8826,9.1596 C81.1597,9.3001 81.4373,9.4392 81.716,9.5766 C82.4244,9.92 83.1393,10.2468 83.8731,10.5327 C84.8446,10.9114 85.8405,11.2235 86.8531,11.4721 C87.1557,11.5464 87.4597,11.6148 87.7645,11.6791 C88.0598,11.7415 88.356,11.8007 88.6545,11.8456 C88.9762,11.8939 89.3006,11.9244 89.6257,11.9361 C90.0014,11.9495 90.3779,11.937 90.7519,11.8987 C91.8507,11.7859 92.9188,11.4606 93.9347,11.0353 C95.5901,10.3422 97.1314,9.3987 98.6214,8.4065 C99.3172,7.9431 100.003,7.4644 100.682,6.9771 C101.197,6.6075 101.709,6.2332 102.22,5.8568 Z M82.7934,14.4019 C82.039,14.1203 81.2968,13.8059 80.5685,13.4624 C79.2993,12.8638 78.0636,12.199 76.8186,11.5522 C76.5104,11.3933 76.2012,11.2366 75.8908,11.082 C74.953,10.6194 74.0015,10.1853 73.0235,9.814 C71.8894,9.3835 70.7239,9.0361 69.5389,8.7766 C67.9498,8.4287 66.3265,8.2301 64.6978,8.2681 C63.7948,8.2891 62.895,8.3692 62.0032,8.5121 C61.5168,8.5901 61.0334,8.686 60.5538,8.7983 C56.9069,9.6518 53.5535,11.4407 50.4519,13.4975 C49.8878,13.8717 49.3303,14.2559 48.7783,14.6477 C48.0702,15.1502 47.3722,15.6663 46.6788,16.1887 L46.5579,16.2805 L50.829,24.5763 C51.1246,24.3562 51.4219,24.1384 51.7198,23.9214 C52.3269,23.4841 52.9383,23.0532 53.5599,22.6367 C54.0713,22.294 54.5887,21.9603 55.1135,21.6386 C55.4956,21.4044 55.8816,21.1766 56.2721,20.9568 C57.6084,20.2046 59.0004,19.54 60.4576,19.0565 C61.9085,18.575 63.4246,18.2795 64.9559,18.2649 C65.4376,18.2603 65.9195,18.2822 66.3987,18.3312 C66.9029,18.3829 67.4035,18.4649 67.9004,18.5636 C68.5817,18.699 69.2553,18.8725 69.9172,19.0829 C70.6636,19.3201 71.3921,19.6075 72.1064,19.9281 C72.3357,20.031 72.5636,20.137 72.7904,20.2454 C72.9158,20.3053 73.0434,20.3611 73.1662,20.4263 C73.186,20.4368 73.4259,20.5958 73.4566,20.6164 C73.6012,20.713 73.7438,20.8128 73.8836,20.9161 C74.3609,21.269 74.8284,21.6764 75.0583,22.2394 C75.1109,22.3684 75.1514,22.4949 75.1793,22.6319 C75.1926,22.6971 75.1979,22.7637 75.2072,22.8296 C75.2211,23.0377 75.2339,23.2458 75.245,23.4542 C75.3091,24.8485 75.2749,26.2454 75.1173,27.6329 C75.0289,28.4107 74.9034,29.1839 74.7281,29.947 C74.4976,30.9504 74.1886,31.9339 73.8347,32.9003 C73.5625,33.6439 73.2628,34.3767 72.9568,35.1069 C72.6176,35.9077 72.2733,36.7063 71.9378,37.5086 C71.6445,38.217 71.359,38.9286 71.1003,39.6506 C70.7551,40.6144 70.4559,41.5952 70.2299,42.5941 C69.8605,44.2268 69.6955,45.8988 69.7328,47.5722 C69.7627,48.9129 69.9215,50.2493 70.2261,51.5557 C70.4531,52.5297 70.7597,53.4827 71.1141,54.4174 C71.6042,55.7097 72.1793,56.9678 72.7248,58.2371 C72.8396,58.5069 72.9532,58.7771 73.0655,59.048 C73.459,60.0124 73.8266,60.9868 74.1319,61.983 C74.5117,63.222 74.7973,64.4887 74.9794,65.7719 C75.2842,67.9186 75.3109,70.1033 75.0529,72.2562 C74.7992,74.3737 74.2709,76.4548 73.5069,78.4451 C72.9225,79.9674 72.2035,81.4407 71.3677,82.8412 L80.948,82.8412 C81.2416,82.4095 81.5237,81.97 81.7925,81.5221 C82.637,80.1144 83.3532,78.6284 83.9055,77.082 C84.4558,75.5408 84.8415,73.9406 85.0371,72.3154 C85.3012,70.1205 85.2185,67.8825 84.7923,65.713 C84.5609,64.5347 84.221,63.3815 83.8073,62.2548 C83.2581,60.759 82.5882,59.3114 81.9631,57.8467 C81.8482,57.5743 81.7347,57.3015 81.6226,57.0279 C81.3741,56.4094 81.1351,55.7873 80.9206,55.1561 C80.5991,54.2102 80.329,53.2468 80.1241,52.2688 C79.8108,50.7732 79.6523,49.2483 79.6304,47.7209 C79.6076,46.1365 79.7345,44.5518 80.0164,42.9924 C80.2555,41.6707 80.6052,40.3714 81.0343,39.0992 C81.4063,37.9961 81.8389,36.9156 82.288,35.8421 C82.6297,35.0343 82.9769,34.2288 83.3159,33.4199 C83.9938,31.7852 84.6272,30.1199 84.9375,28.371 C85.0424,27.7798 85.1148,27.1823 85.1639,26.584 C85.2586,25.4298 85.2594,24.2681 85.1749,23.1132 C84.9774,20.4146 84.3174,17.744 83.209,15.2744 C83.0771,14.9803 82.9384,14.6895 82.7934,14.4019 Z"/>
</svg>
