<svg xmlns="http://www.w3.org/2000/svg" width="500" height="500" viewBox="0 0 500 500">
  <path fill="#E9F6F7" fill-rule="evenodd" d="M151.725019,433.329393 L69.6040899,433.329393 L69.6040899,80.2413804 L146.322327,79.9016591 C189.92854,137.580374 233.534754,195.25909 277.140967,252.937373 L371.510882,83.3165931 L386.61681,91.7218863 L386.647065,91.7664045 C386.802663,91.9634948 386.953938,92.1610172 387.105214,92.3585397 C390.212843,96.4481619 393.043854,100.735739 395.550703,105.221271 C403.442957,119.344342 408.197326,135.17985 409.701436,151.273823 C410.587478,160.807631 410.362725,170.494875 408.772173,179.944401 C407.937997,184.905369 406.624062,189.773412 405.011899,194.535129 C403.55101,198.853393 401.839437,203.08046 400.080321,207.283755 C398.597822,210.782106 397.093712,214.270517 395.628502,217.77492 C394.107104,221.453505 392.633249,225.153269 391.340925,228.920027 C390.022668,232.764583 388.890264,236.673539 388.021511,240.644302 C386.504434,247.579198 385.830178,254.67315 385.990098,261.770127 C386.119763,267.631833 386.81563,273.475817 388.146853,279.187544 C389.140948,283.44573 390.480816,287.612719 392.028147,291.699316 C394.171936,297.345346 396.683108,302.841397 399.064614,308.387585 C399.565984,309.565805 400.063032,310.745753 400.555758,311.928294 C402.362418,316.361096 404.043736,320.842737 405.418181,325.430272 C407.125432,331.12471 408.370212,336.950109 409.117945,342.847256 C410.250349,351.726258 410.293571,360.736652 409.221677,369.623866 C408.080628,379.133902 405.664544,388.474077 402.167921,397.38852 C399.635139,403.849708 396.540476,410.083551 392.983344,416.040776 L430.39591,416.040776 L430.39591,433.329393 L347.97243,433.329393 L347.97243,416.040776 L372.293191,416.040776 C374.199261,413.393889 376.014566,410.681305 377.708851,407.891787 C381.715488,401.29229 385.069479,394.289968 387.580651,386.984663 C389.741728,380.687284 391.263126,374.169475 392.058403,367.558308 C393.199451,358.072044 392.845035,348.398631 390.999475,339.022582 C390.001057,333.929356 388.531525,328.945047 386.742153,324.074412 C384.36929,317.609766 381.473447,311.353015 378.772101,305.023221 C378.275053,303.845866 377.786649,302.66635 377.302568,301.483809 C376.226352,298.810556 375.193357,296.121312 374.264094,293.392736 C372.876682,289.303978 371.709701,285.140015 370.823659,280.912516 C369.470825,274.448302 368.783602,267.857449 368.688515,261.255791 C368.593427,254.408202 369.138019,247.559316 370.356866,240.819781 C371.433083,234.871633 373.027958,229.029377 374.985894,223.314193 C376.541869,218.781117 378.326919,214.334917 380.176801,209.915515 C381.654977,206.423646 383.154765,202.942151 384.619975,199.445528 C387.61955,192.210242 390.415984,184.832325 391.721275,177.076652 C392.248577,173.945251 392.585705,170.780137 392.767236,167.610269 C393.05682,162.501483 392.931478,157.36979 392.425786,152.278292 C391.068629,138.572309 386.953938,125.084162 380.142223,113.094939 C379.247538,111.516488 378.300986,109.96786 377.311212,108.449055 L246.436384,343.693102 L241.669048,344.009916 L151.725019,223.335371 L151.725019,433.329393 Z M267.952067,269.452324 L137.747173,97.2283108 L86.8927066,97.453495 L86.8927066,416.040776 L134.436403,416.040776 L134.436403,187.260079 L144.027263,184.078974 L242.183384,315.771554 C250.775827,300.331955 259.363947,284.891923 267.952067,269.452324 Z"/>
</svg>
