<svg xmlns="http://www.w3.org/2000/svg" width="500" height="500" viewBox="0 0 500 500">
  <path fill="#FFFFFF" fill-rule="evenodd" d="M251.22365,68.7881041 C254.47391,68.8252746 257.72417,68.9078277 260.970108,69.0863327 C266.562975,69.3940701 272.147198,69.9429836 277.696844,70.7287513 C296.576014,73.4024359 315.061867,78.8665032 332.34184,86.9303462 C354.855941,97.4336131 375.312697,112.342452 392.117232,130.64591 C406.821201,146.664678 418.711447,165.262908 426.932184,185.400688 C434.093993,202.941719 438.429114,221.6359 439.743049,240.53668 C440.983507,258.394525 439.552874,276.439518 435.477083,293.871198 C432.053937,308.497368 426.76362,322.675331 419.82224,335.992752 C413.952755,347.248506 406.881711,357.876683 398.820893,367.68149 C389.86539,378.575479 379.678072,388.457221 368.51827,397.083808 C351.947131,409.897266 333.258136,419.958809 313.441059,426.751939 C293.455419,433.603418 272.35034,437.140236 251.22365,437.269037 C230.421122,437.395676 209.601305,434.229266 189.801517,427.833342 C169.500359,421.274905 150.30135,411.305856 133.272062,398.452634 C122.518543,390.339519 112.642421,381.077142 103.855481,370.866917 C95.4618576,361.107061 88.070974,350.479748 81.8859714,339.187688 C74.4043225,325.527088 68.7250119,310.913452 64.9863485,295.795421 C63.6680915,290.465773 62.6134859,285.068267 61.8009209,279.638777 C59.9726497,267.403191 59.4107696,254.978294 60.1239251,242.627306 C61.2174301,223.694974 65.336443,204.942876 72.3037555,187.302868 C80.2738079,167.10501 91.939302,148.403048 106.431485,132.242946 C122.998302,113.774814 143.247594,98.6572149 165.601776,87.9041276 C182.726151,79.6635084 201.082339,73.9928421 219.862099,71.0900834 C225.416067,70.2317035 231.004613,69.6119066 236.614769,69.2350148 C239.84774,69.0176104 243.085034,68.8952935 246.326649,68.8179269 C247.960424,68.7967484 249.589876,68.7868074 251.22365,68.7881041 Z M156.931534,393.717714 C168.886613,401.112056 181.740699,407.060637 195.117767,411.381926 C212.531726,417.008074 230.823082,419.890087 249.123083,419.981716 C269.043892,420.081558 288.986311,416.859392 307.835225,410.397772 C325.862931,404.217524 342.866285,395.063633 357.946281,383.406351 C367.489597,376.025841 376.254926,367.633514 384.039126,358.413927 C391.460265,349.626123 397.99104,340.084535 403.44992,329.960754 C410.131971,317.571299 415.180247,304.335134 418.473728,290.650761 C419.515367,286.314776 420.36251,281.929519 421.032443,277.520921 C422.79156,265.966939 423.297252,254.222349 422.54952,242.559016 C421.456015,225.478727 417.617942,208.580401 411.238442,192.69951 C403.903746,174.455265 393.228026,157.583304 380.0152,143.031475 C364.853083,126.337587 346.36723,112.70508 325.992595,103.048956 C310.648948,95.7756348 294.224762,90.7403251 277.441837,88.1673468 C272.026178,87.3374931 266.575942,86.7483835 261.108417,86.4125522 C258.147741,86.2310217 255.182743,86.1380954 252.217745,86.089255 C251.106952,86.0762886 249.991836,86.0758563 248.881042,86.0797463 C240.392332,86.1519263 231.916587,86.773452 223.51432,88.0221224 C206.917248,90.4896402 190.678914,95.3265629 175.447643,102.373403 C169.094076,105.313765 162.917718,108.640094 156.961789,112.324731 L156.961789,393.040001 C156.948823,393.265617 156.944501,393.492098 156.931534,393.717714 Z M139.673173,124.533088 C133.133753,129.774132 126.974684,135.488884 121.273762,141.630233 C107.844829,156.08611 96.9486787,172.90923 89.3978753,191.143967 C82.8152345,207.039121 78.8042754,223.984559 77.5465286,241.142214 C76.3795469,257.074539 77.5681393,273.186665 81.090695,288.76976 C84.0600149,301.913431 88.7020085,314.676752 94.826501,326.678078 C100.168684,337.142445 106.643271,347.020728 114.064409,356.127939 C121.671401,365.467682 130.27681,373.993132 139.673173,381.530968 L139.673173,124.533088 Z"/>
</svg>
