<svg xmlns="http://www.w3.org/2000/svg" width="500" height="500" viewBox="0 0 500 500">
  <path fill="#FFFFFF" fill-rule="evenodd" d="M220.150633,78.464975 L212.327102,62.6757136 L227.818567,55 C239.087719,77.7440397 250.357304,100.487647 261.626457,123.231255 L246.134992,130.906968 L228.077896,94.4642932 C227.406666,94.5917967 227.276569,94.6172974 226.382315,94.7958024 C225.358397,95.0101812 225.360126,95.009749 224.336639,95.2345011 C220.951096,96.0120566 217.601427,96.9201412 214.306648,98.0244516 C207.539019,100.29315 201.021211,103.323845 195.015145,107.18958 C189.329784,110.849147 184.118995,115.25299 179.635624,120.317691 C176.198647,124.200282 173.189131,128.460197 170.696977,133.007968 C167.057723,139.648957 164.527534,146.884244 163.229159,154.344714 C162.16807,160.444138 161.928191,166.680142 162.522487,172.842237 C163.301339,180.916886 165.396287,188.863598 168.662539,196.28733 C169.836868,198.956693 171.161177,201.559062 172.618607,204.084929 C173.712544,205.980625 174.881255,207.833533 176.116094,209.640626 C184.579304,222.026623 195.986333,232.084708 208.039957,240.866461 C210.080878,242.353714 212.146868,243.80639 214.22885,245.235294 C217.32308,247.359633 220.463125,249.416546 223.619162,251.447526 L223.961044,251.665795 L273.907426,220.748562 C276.700834,222.2289 279.495539,223.707076 282.285057,225.195194 C287.628104,228.066833 292.944786,230.986016 298.192313,234.029245 C302.437101,236.490712 306.639099,239.027384 310.775833,241.667356 C313.926683,243.678454 317.039931,245.749198 320.101313,247.893851 C322.525177,249.592026 324.916625,251.336015 327.267012,253.133599 C339.757606,262.684695 351.293867,273.872591 359.481756,287.400501 C360.579151,289.213213 361.613443,291.064392 362.57858,292.951012 C363.872201,295.480769 365.041343,298.074926 366.071313,300.723109 C367.843396,305.279092 369.201417,309.99413 370.116849,314.796043 C370.395196,316.254338 370.632482,317.720413 370.829572,319.192107 C370.970907,320.246712 371.085444,321.304343 371.215973,322.360678 C371.426462,323.979757 371.643866,325.597971 371.848304,327.217915 C372.102879,329.331448 372.324173,331.448871 372.410184,333.5771 C372.528179,336.49369 372.456863,339.423678 372.261934,342.335513 C371.859974,348.32818 370.861556,354.276329 369.350963,360.087897 C367.033856,369.000179 363.509572,377.597808 358.896969,385.568293 C353.469208,394.947367 346.521777,403.435214 338.34988,410.555963 C331.916354,416.161364 324.732933,420.904929 317.064135,424.645321 C313.847588,426.214263 310.544598,427.607293 307.175046,428.814039 C304.494014,429.773989 301.766735,430.596927 299.034701,431.39739 C296.204987,432.226379 293.361874,433.007393 290.50104,433.721412 C281.440076,435.982763 272.210116,437.546087 262.890687,438.206944 C251.643145,439.003949 240.329907,438.502147 229.168808,436.93407 C221.079464,435.797343 213.059707,434.120347 205.230557,431.783358 C204.326362,431.504147 203.426922,431.212834 202.524024,430.929301 C201.108518,430.484983 199.683936,430.068328 198.267999,429.624442 C193.369701,428.027839 188.597611,426.034893 183.988466,423.735507 C175.373116,419.438422 167.330883,413.995101 160.16821,407.560278 C149.679638,398.137549 141.08028,386.578812 135.383681,373.662919 C133.529909,369.459624 131.983442,365.120613 130.773671,360.687812 C129.57946,356.310767 128.708114,351.842091 128.195506,347.333652 C127.853624,344.324569 127.685924,341.302518 127.633194,338.275282 L127.532488,328.970116 L127.580464,328.921276 L205.352874,328.515425 L205.427215,337.680985 C205.43802,338.231196 205.46525,338.779677 205.497234,339.329023 C205.637272,340.974035 205.886228,342.597868 206.291213,344.199658 C208.362822,352.395759 213.752548,359.472855 220.356368,364.604548 C221.526375,365.51393 222.740036,366.366691 223.990867,367.161102 C225.393406,368.052331 226.842624,368.869218 228.33031,369.609603 C233.40668,372.136766 238.914833,373.758871 244.54271,374.440042 C249.04553,374.984634 253.625285,374.926717 258.12897,374.417999 C262.417843,373.933918 266.670843,372.974832 270.684395,371.371313 C274.60286,369.805829 278.264157,367.605852 281.439212,364.821953 C286.139986,360.699482 289.696687,355.367673 291.97403,349.561723 C292.869148,347.279193 293.562854,344.914543 294.031808,342.507967 C294.406539,340.585041 294.641664,338.629266 294.660249,336.669169 C294.67797,334.775201 294.43031,332.896361 294.112632,331.032648 C293.554642,327.756023 292.574377,324.543366 291.162762,321.532985 C288.320081,315.469435 283.730386,310.440609 278.65877,306.150871 C273.497253,301.784631 267.805841,298.070603 262.032307,294.575277 C255.689978,290.735043 249.207179,287.131231 242.779704,283.437086 C241.494295,282.688057 240.210615,281.936434 238.928664,281.182218 L237.009628,280.040737 C234.390834,278.464015 231.784575,276.866979 229.175723,275.274266 C225.486332,273.013779 221.802128,270.745945 218.137374,268.445694 C214.973557,266.459232 211.831351,264.436896 208.718535,262.370907 C194.293346,252.797335 180.354398,242.128097 169.093458,228.874644 C167.630841,227.152698 166.215335,225.390123 164.854289,223.586488 C163.175564,221.361875 161.578961,219.074591 160.077012,216.726797 C157.922418,213.357678 155.961457,209.864513 154.22568,206.261565 C149.781209,197.037656 146.844305,187.105346 145.5831,176.942665 C144.597217,168.998545 144.706567,160.933838 145.927144,153.021702 C147.382845,143.584711 150.410947,134.404888 154.860172,125.956373 C158.37149,119.288586 162.763663,113.092345 167.870288,107.552208 C173.609245,101.325713 180.240726,95.9463598 187.456562,91.5217706 C195.204024,86.771291 203.605427,83.1346304 212.304194,80.5227527 C214.896622,79.7443327 217.514119,79.0644578 220.150633,78.464975 Z M240.361026,261.847061 C242.200535,262.970389 244.03745,264.098472 245.887332,265.205375 C247.729867,266.308389 249.583639,267.392385 251.438707,268.473356 C255.870644,271.020402 260.316844,273.543243 264.74662,276.094178 C272.185479,280.43146 279.574634,284.898839 286.392832,290.177485 C291.327868,293.99827 295.96165,298.252566 299.871903,303.130982 C302.099109,305.910127 304.086003,308.884633 305.744846,312.037212 C307.71229,315.775011 309.218129,319.749232 310.248962,323.844473 C310.754655,325.856004 311.144513,327.893035 311.443606,329.944762 C311.711147,331.779948 311.896135,333.628966 311.939789,335.483602 C312.021478,338.94608 311.663604,342.414609 311.002314,345.81139 C308.823948,356.993235 303.304557,367.591157 295.200086,375.618694 C291.366335,379.416571 286.951687,382.616694 282.165333,385.106687 C274.6906,388.995329 266.38342,391.085955 258.014,391.801703 C253.965871,392.147908 249.888783,392.218791 245.835034,391.927478 C241.605806,391.623631 237.405537,390.933383 233.304677,389.852412 C218.666405,385.99316 205.222345,377.054081 196.74271,364.416535 C195.580915,362.685512 194.516801,360.88836 193.562469,359.034156 C191.427757,354.885752 189.867892,350.467214 188.961536,345.890053 L145.46208,346.116966 C145.972526,350.151697 146.822694,354.139749 147.997888,358.033145 C148.946601,361.17708 150.104074,364.257911 151.454747,367.251435 C152.566405,369.715496 153.807295,372.121207 155.166613,374.457763 C163.265465,388.376396 175.501052,399.706059 189.69587,407.230929 C194.363797,409.705363 199.251289,411.815438 204.29481,413.395618 C205.43024,413.742255 206.569128,414.078518 207.701965,414.434232 C208.553429,414.701341 209.401436,414.977094 210.254197,415.240746 C216.985087,417.249683 223.878923,418.695876 230.828083,419.706827 C241.291154,421.228658 251.909822,421.714468 262.457607,420.9032 C270.968793,420.248393 279.385324,418.739529 287.647122,416.60914 C290.264186,415.934019 292.865258,415.20055 295.454661,414.426884 C297.714283,413.752196 299.964829,413.0546 302.176475,412.234687 C304.662578,411.313636 307.102434,410.268107 309.485238,409.10588 C315.791693,406.030235 321.701374,402.13122 326.992123,397.520778 C333.732523,391.648267 339.456784,384.643784 343.933239,376.908425 C347.531864,370.689709 350.320086,364.018896 352.252089,357.099992 C353.639933,352.130379 354.567467,347.021593 354.961647,341.875636 C355.154848,339.351498 355.238265,336.806614 355.135398,334.276425 C355.078778,332.873886 354.937443,331.47783 354.780117,330.083503 C354.557094,328.231892 354.30079,326.384603 354.064368,324.534289 C353.916118,323.373791 353.792937,322.210267 353.633882,321.051065 C353.10096,317.366429 352.28148,313.720259 351.104989,310.186034 C350.213329,307.507163 349.162181,304.887073 347.939011,302.341756 C344.523213,295.232245 339.872575,288.775379 334.575343,282.95214 C328.044568,275.773907 320.546927,269.518021 312.694005,263.841303 C309.888927,261.813781 307.031983,259.858871 304.137004,257.961877 C300.262193,255.423476 296.31866,252.990103 292.331472,250.631504 C286.979349,247.465958 281.543375,244.447798 276.076715,241.485825 L274.56569,240.674125 C263.163847,247.73177 251.762437,254.789416 240.361026,261.847061 Z"/>
</svg>
