<?xml version="1.0" encoding="UTF-8" standalone="no"?>
<!DOCTYPE svg PUBLIC "-//W3C//DTD SVG 1.1//EN" "http://www.w3.org/Graphics/SVG/1.1/DTD/svg11.dtd">
<svg width="100%" height="100%" viewBox="0 0 1418 1253" version="1.1" xmlns="http://www.w3.org/2000/svg" xmlns:xlink="http://www.w3.org/1999/xlink" xml:space="preserve" style="fill-rule:evenodd;clip-rule:evenodd;stroke-linejoin:round;stroke-miterlimit:1.41421;">
    <rect id="Artboard1" x="0" y="0" width="1417.32" height="1252.91" style="fill:none;"/>
    <clipPath id="_clip1">
        <rect id="Artboard11" x="0" y="0" width="1417.32" height="1252.91"/>
    </clipPath>
    <g clip-path="url(#_clip1)">
        <g transform="matrix(2.20841,0,0,2.20841,91.9473,6.13955)">
            <clipPath id="_clip2">
                <path d="M282.541,542.135C282.949,542.21 282.874,542.778 283.123,543.009C286.631,542.431 283.264,538.443 282.541,542.135ZM203.189,389.853C203.56,389.12 202.494,387.753 201.146,387.814C200.976,389.346 201.911,389.768 203.189,389.853ZM198.816,364.48C198.6,364.273 197.384,363.752 197.646,364.771C197.665,365.142 198.022,365.175 197.938,365.645C198.924,366.006 199.276,365.067 200.563,365.936C196.787,369.252 203.325,374.508 201.146,379.064C202.156,380.778 203.964,381.694 205.523,382.854C205.049,383.357 204.64,383.916 204.65,384.898C204.838,389.426 207.21,392.342 208.732,394.813C211.033,398.552 211.32,404.024 213.983,407.068C213.715,408.989 215.678,410.153 214.565,412.61C217.651,416.917 219.858,422.098 220.399,428.946C221.202,429.801 222.203,430.454 223.607,430.693C223.414,431.375 222.08,430.914 222.442,432.154C222.456,433.404 223.729,433.394 223.903,434.489C224.142,437.805 226.313,441.572 226.529,445.87C228.379,447.467 227.924,450.064 228.863,451.99C229.872,454.075 232.352,456.001 231.489,459.867C232.775,462.356 234.983,462.943 236.153,465.118C237.125,466.926 236.096,468.382 236.444,470.665C236.721,472.459 238.059,473.263 239.069,475.043C240.21,477.034 241.944,480.505 242.282,483.206C242.733,486.832 243.457,487.931 244.616,491.088C245.312,492.981 245.636,495.433 246.364,497.208C246.73,498.1 247.754,498.899 248.116,499.838C248.619,501.149 248.45,502.793 248.989,504.216C250.159,507.274 252.117,509.989 252.78,512.671C253.832,516.903 256.453,518.486 254.823,523.173C256.341,524.77 258.13,526.095 258.619,528.716C260.986,529.101 262.433,531.853 264.161,531.924C264.203,531.388 265.148,531.745 265.326,531.341C264.405,527.466 263.32,521.318 260.661,518.213L260.661,516.466C257.191,510.407 254.354,503.709 251.615,496.921C251.272,494.254 250.328,492.177 248.699,490.792C247.289,484.615 245.148,479.176 241.7,475.043C242.174,473.028 240.977,471.67 240.822,469.496C239.915,468.772 238.289,467.697 238.196,466.579C237.618,459.627 233.466,451.436 231.489,444.7C230.742,444.667 230.094,444.536 229.737,444.118C229.981,443.385 230.117,442.554 230.028,441.492C227.609,434.381 224.133,428.326 222.151,420.778C219.657,418.416 220.178,414.808 218.069,412.028C218.121,409.054 216.5,407.758 215.444,405.898C215.932,403.709 214.49,401.055 214.857,398.021C211.902,396.119 211.503,391.652 209.028,389.271C208.717,385.593 207.336,382.991 205.523,380.816C206.19,376.744 203.25,372.436 202.315,369.726C201.193,366.476 202.283,361.845 198.816,360.393C198.177,361.535 198.004,363.366 198.816,364.48ZM190.643,346.1C192.611,346.758 195.077,346.918 195.899,348.726C196.594,348.547 197.229,348.303 198.229,348.435C198.37,347.321 198.106,346.612 197.355,346.391C194.866,347.693 192.348,343.052 190.643,346.1ZM273.203,338.806C263.776,341.474 253.987,344.71 243.447,344.348C241.705,345.79 238.712,344.611 236.444,345.804C235.819,345.461 235.105,345.203 234.405,344.931C233.513,345.504 233.076,346.523 232.071,346.974C231.291,346.683 230.535,346.373 229.445,346.391C227.909,348.158 225.166,349.275 221.86,348.435C220.375,349.895 218.422,349.43 215.735,349.308C214.875,348.125 214.786,346.171 212.818,346.1C211.559,347.589 213.997,348.768 213.4,349.599C210.253,349.041 207.825,351.295 206.98,353.972C208.328,355.645 208.995,357.993 210.484,359.515C210.953,358.82 210.949,357.645 211.357,356.889C214.777,355.4 218.722,356.236 221.86,354.56C228.901,355.1 229.492,352.84 236.444,353.099C242.372,350.459 250.901,350.121 258.036,349.308C260.972,347.631 264.34,347.937 268.243,347.556C270.356,345.983 273.522,346.429 276.998,345.804C277.627,344.686 278.492,343.799 278.163,341.723C276.81,340.45 275.152,339.482 273.203,338.806ZM498.711,339.388C498.889,338.237 498.058,338.096 497.25,337.932C497.17,338.989 498.095,339.914 498.711,339.388ZM180.728,348.139C181.47,350.196 181.216,352.394 181.601,354.851C182.287,359.181 185.458,362.892 186.27,366.809C186.439,367.636 185.923,368.51 185.979,369.435C186.111,371.638 187.764,372.22 188.605,374.395C189.986,377.984 191.493,380.163 190.643,384.024C192.583,385.799 193.894,389.9 193.856,391.896C198.032,394.442 197.186,402.751 201.146,406.48C200.859,409.496 202.597,410.477 202.606,413.192C202.865,413.808 203.415,414.132 203.771,414.653C204.053,420.637 207.952,424.418 207.567,430.111C212.142,437.307 214.828,446.382 217.773,455.203C220.338,459.66 222.907,465.606 223.903,470.665C225.43,473.164 228.778,478.039 226.529,481.459C223.87,480.693 224.551,477.438 223.607,475.329C223.184,474.376 222.066,473.601 221.569,472.708C220.92,471.539 220.343,470.078 219.817,468.913C219.173,467.476 219.262,465.935 218.651,464.536C217.322,461.487 213.222,459.444 213.983,455.203C211.775,453.38 212.264,450.477 211.357,447.617C210.634,445.339 209.056,443.08 208.149,440.618C207.186,438.002 206.745,435.109 205.815,433.324C205.204,432.145 204.133,431.633 203.771,430.407C203.532,429.576 203.922,428.674 203.771,427.777C203.344,425.198 201.832,424.268 200.855,422.239C199.929,420.313 199.234,417.767 198.52,416.401C194.316,408.34 193.006,398.867 188.018,391.314C186.885,384.766 183.692,380.276 182.771,373.521C183.236,373.108 183.513,372.516 183.645,371.769C182.926,369.214 179.69,367.697 178.685,364.771C177.337,360.854 177.219,356.302 175.477,352.808C174.945,351.746 173.781,351.225 173.433,350.182C172.518,347.439 172.794,344.522 171.973,342.596C171.141,340.638 171.155,341.126 170.225,340.262C169.314,339.421 169.648,337.674 168.182,337.636C167.684,341.375 168.243,348.763 170.517,351.643C170.728,352.535 170.014,352.498 170.225,353.39C173.649,357.796 174.777,363.484 176.641,369.435C177.228,371.323 177.614,372.554 178.102,373.813C179.046,376.241 179.075,378.956 179.854,381.107C180.249,382.206 181.249,382.977 181.601,384.024C182.917,387.951 182.818,392.107 185.101,395.4C183.898,397.053 186.176,398.355 185.392,400.355C189.784,403.535 188.934,411.008 192.687,415.236C192.536,417.875 194.659,419.89 195.312,422.239C196.172,425.334 196.256,427.514 196.773,429.529C197.764,433.423 200.69,437.265 202.315,441.201C203.053,442.981 202.86,444.808 203.189,446.156C203.95,449.247 206.035,450.191 206.98,452.286C207.515,453.465 207.594,455.376 208.149,456.95C209.244,460.069 210.464,462.502 210.192,465.996C210.972,466.386 212.095,466.424 212.236,467.452C212.057,472.394 216.077,474.69 215.735,478.829C213.945,478.932 213.039,477.203 211.648,478.542C213.4,484.766 219.662,486.475 222.151,491.957C222.198,491.614 222.104,491.13 222.442,491.088C224.701,492.52 225.589,495.324 228.281,496.334C228.262,498.429 231.432,500.003 232.362,497.79C230.23,495.991 229.643,491.247 228.281,487.293C227.778,485.837 225.364,482.704 227.984,481.459C229.713,482.065 229.751,484.362 229.737,486.71C233.053,491.074 235.895,495.912 238.196,501.299C237.679,502.135 236.429,502.253 236.444,503.629C236.669,506.015 239.051,507.1 240.53,508.88C243.161,512.036 246.045,516.433 250.451,516.762C249.576,513.934 247.515,512.196 246.655,509.463C246.204,508.016 246.716,506.391 246.364,504.798C245.922,502.802 244.091,501.088 243.156,498.96C242.564,497.612 242.55,496.038 241.991,494.587C239.939,489.261 236.843,484.963 234.988,480.289C235.383,476.01 232.367,475.132 232.362,471.248C229.168,468.246 229.778,462.614 227.693,458.702C226.947,457.293 225.701,456.405 225.068,454.911C222.78,449.496 220.164,444.954 218.943,439.158C218.684,437.918 217.567,436.818 217.191,435.658C216.9,434.752 217.158,433.77 216.9,433.028C216.562,432.056 215.552,431.393 215.152,430.407C214.866,429.702 215.11,428.805 214.857,428.073C213.184,423.155 209.267,418.74 209.61,412.901C208.915,411.943 207.952,411.253 207.567,409.984C207.74,409.285 207.985,408.65 207.858,407.65C206.407,404.155 203.039,400.896 202.024,396.856C201.339,394.141 201.512,391.084 200.272,388.688C200.075,388.012 198.948,388.265 198.816,387.519C198.398,386.091 197.98,384.658 197.938,382.854C193.725,376.823 191.108,369.797 190.352,361.558C187.196,357.523 185.012,352.512 184.227,346.1C181.038,346.18 181.31,342.794 180.145,340.849C178.675,341.408 177.266,339.243 176.933,340.553C177.393,343.522 179.666,345.212 180.728,348.139ZM154.18,332.098C151.292,334.846 154.913,338.688 154.763,342.305C157.379,346.589 160.371,350.506 160.597,357.185C163.114,360.76 163.03,365.175 164.974,369.144C164.88,369.83 164.509,370.238 164.683,371.187C165.486,372.761 167.633,373.93 168.182,375.851C168.577,377.227 167.957,379.214 168.182,381.107C168.713,385.536 172.297,389.844 172.56,393.357C172.616,394.127 172.09,395.222 172.264,395.983C172.579,397.345 174.03,398.204 174.598,399.482C175.148,400.708 174.993,402.558 175.477,404.151C176.05,406.034 177.637,407.913 178.102,409.984C178.769,412.981 179.38,414.057 180.145,416.109C180.935,418.232 181.517,420.276 181.019,422.239C182.16,423.982 183.795,426.231 183.062,428.946C184.504,430.811 185.049,433.568 185.688,436.241C189.798,439.815 189.225,448.063 191.813,453.159C191.01,453.808 190.385,451.741 189.479,453.159C189.492,455.752 189.765,458.429 190.643,459.58C192.513,462.023 196.294,464.498 198.229,466.87C199.718,468.692 200.093,470.74 201.733,472.412C205.96,473.14 208.06,476.006 211.066,477.96C212.057,473.357 207.708,470.383 208.44,464.244C204.903,456.687 199.422,449.547 198.229,440.618C195.401,438.65 195.871,434.728 194.73,431.281C193.87,428.693 191.545,426.72 190.935,424.277C190.704,423.352 191.08,422.323 190.935,421.361C190.46,418.162 188.652,416.391 187.726,414.066C186.792,411.699 186.651,409.078 184.81,407.65C184.284,403.662 181.865,399.679 180.437,395.691C180.441,395.208 181.245,395.527 181.31,395.104C179.577,393.939 180.042,392.136 179.558,390.144C178.826,387.124 176.069,384.494 174.89,381.398C173.664,378.176 173.57,375.396 172.56,372.061C172.212,370.919 171.01,369.632 170.517,368.27C170.211,367.434 170.263,366.33 169.934,365.645C168.849,363.381 167.384,362.573 167.017,360.102C166.421,356.114 164.923,354.433 163.809,351.351C163.856,350.52 164.34,350.135 164.392,349.308C163.269,347.974 163.053,345.964 162.931,344.348C160.578,341.741 159.375,337.984 158.262,334.137C156.153,334.207 155.885,332.432 154.18,332.098ZM54.12,325.095C55.289,325.292 55.783,324.813 56.745,324.804C56.863,322.737 55.261,322.394 54.12,321.591C53.138,322.286 53.584,324.254 54.12,325.095ZM85.04,320.135C86.135,320.887 86.665,322.206 87.375,323.343L87.375,325.386C87.652,326.279 88.793,326.302 88.831,327.425C89.855,336.081 91.729,342.08 95.252,348.139C95.106,352.173 98.051,353.122 97.29,357.768C99.333,359.548 99.385,362.883 99.042,365.645C101.428,367.927 103.368,370.656 105.172,373.521C108.779,373.658 108.563,378.998 112.462,377.899C112.823,373.888 110.155,370.515 110.71,365.353C109.249,362.854 107.985,360.205 107.793,357.185C107.262,356.354 106.135,356.119 105.754,355.142C104.89,352.596 103.551,350.144 102.837,347.556C102.076,344.823 100.188,342.347 101.376,338.806C97.262,333.094 96.604,323.935 92.626,318.092C92.339,316.922 92.269,315.532 92.335,314.005C96.896,309.736 98.018,318.923 98.751,323.052C102.654,328.134 100.86,337.228 105.754,341.723C105.796,345.861 107.548,348.294 108.671,351.351C108.572,352.033 108.319,352.554 108.089,353.099C109.159,356.499 112.222,357.913 111.588,363.019C114.289,367.805 114.664,374.916 117.422,379.646C116.839,380.816 116.092,381.816 115.674,383.146C119.098,387.885 124.072,391.079 127.633,395.691C128.361,396.682 128.755,394.888 129.967,395.4C130.855,392.62 128.99,388.453 130.841,386.354C133.26,391.145 136.999,397.058 135.218,402.69C138.112,403.587 137.473,408.021 139.009,410.276C139.328,408.975 140.897,410.98 141.343,411.445C143.819,411.304 144.833,412.619 146.303,413.484C146.191,415.348 147.966,415.32 148.056,416.983C149.258,416.95 149.878,417.495 151.263,417.279C151.743,413.681 148.004,412.244 150.39,409.984C148.154,408.636 148.863,404.733 147.764,404.442C148.708,404.221 147.825,402.173 149.22,402.399C150.695,403.15 149.737,406.048 149.22,407.359C150.24,407.41 150.69,408.03 150.972,408.82C151.156,412.427 153.659,413.714 153.889,417.279C153.471,418.03 151.992,417.716 151.846,418.735C152.302,421.887 154.251,422.427 155.928,424.277C159.488,428.209 163.344,432.394 166.726,435.658C167.036,434.705 168.318,434.724 168.765,433.906C167.036,428.636 165.66,423.009 164.392,417.279C167.276,418.364 167.2,420.44 167.891,423.112C168.807,426.668 170.967,429.984 171.39,432.741C172.015,434.038 174.086,434.865 173.142,436.823L169.934,436.823C169.563,441.685 175.998,441.957 176.933,446.452C179.906,447.856 181.949,450.186 183.645,452.868C185.509,453.15 187.022,454.042 188.605,453.159C188.013,450.332 187.431,447.828 186.562,444.7C185.42,440.576 183.395,436.875 181.892,433.324C181.061,431.361 179.596,429.876 178.976,428.073C178.318,426.152 178.567,423.775 177.811,421.652C177.491,420.764 176.59,419.919 176.35,419.026C175.975,417.608 176.374,416.076 176.059,414.653C175.74,413.202 174.204,411.708 173.725,409.984C173.584,409.468 173.899,408.669 173.725,408.232C173.184,406.894 172.231,406.565 171.973,405.316C170.925,400.135 169.685,395.071 167.017,391.023C167.623,386.776 165.613,384.31 163.809,380.229C161.94,376.011 161,372.789 159.723,368.27C158.751,364.832 156.858,361.723 155.636,358.641C154.969,356.96 155.12,355.837 154.472,354.56C153.311,352.272 152.006,349.947 151.263,347.556C150.803,346.081 150.878,344.358 150.39,343.179C150.094,342.474 149.239,342.056 148.929,341.431C147.75,339.055 147.487,336.204 147.473,333.846C148.243,333.061 148.962,332.225 148.638,330.342C146.44,328.745 143.847,326.33 140.179,327.134C140.921,336.025 145.472,342.639 146.012,350.764C149.568,355.546 151.602,364.066 150.094,370.605C150.489,371.281 151.785,371.051 152.428,371.478C156.003,376.852 156.557,385.24 159.432,391.314C159.056,394.329 160.639,395.348 161.179,397.147C161.93,399.641 161.696,402.54 162.64,404.733C163.278,406.222 164.829,407.1 165.265,408.528C165.871,410.515 165.341,412.61 166.139,414.653C165.551,415.231 165.106,415.954 164.392,416.401C160.366,413.62 162.16,405.015 157.68,402.69C157.187,400.656 156.759,398.557 155.636,397.147C154.744,388.651 152.109,379.52 148.347,372.934C148.112,371.924 148.779,371.816 148.638,370.896C146.388,368.716 147.971,364.794 145.425,362.728L145.425,360.393C144.96,359.304 143.612,359.097 143.387,357.768C141.949,348.12 136.247,342.732 135.51,332.39C134.89,331.647 133.894,331.276 133.758,330.051C134.481,328.871 133.791,327.998 134.345,326.551C132.184,323.536 127.83,323.31 124.716,321.887C124.815,323.212 124.275,324.442 124.425,325.386C126.12,326.607 126.863,328.778 127.924,330.638C127.591,338.172 132.687,345.02 133.467,352.225C135.707,355.508 137.356,360.67 137.262,365.353C140.197,369.35 139.793,375.396 142.508,378.481C142.179,379.83 143.044,380.924 143.387,382.272C144.082,385.015 145.608,388.472 143.969,390.435C143.142,389.731 142.494,389.318 141.926,388.397C140.963,386.833 140.911,384.48 140.179,382.563C139.859,381.737 139,381.187 138.718,380.525C137.868,378.505 138.074,375.611 137.553,373.23C136.684,369.266 134.293,365.969 133.175,362.436C132.926,361.647 133.142,360.619 132.884,359.806C132.504,358.622 131.447,357.697 131.132,356.598C130.897,355.771 131.306,354.79 131.132,353.972C130.841,352.61 129.577,351.845 129.089,350.473C128.342,348.364 128.361,346.471 128.215,344.348C125.181,339.938 125.003,334.48 121.508,330.638C121.71,327.223 119.422,326.302 119.173,323.343C119.375,321.99 120.991,322.047 121.508,321.009C119.455,322.028 119.573,319.816 118.3,319.261C115.97,320.168 114.397,318.735 112.17,318.674C113.932,320.525 112.551,323 113.335,325.095C113.88,326.542 116.966,327.847 115.087,330.929C116.731,333.465 117.065,337.312 117.422,341.14C122.579,353.489 126.426,367.143 129.671,381.398C129.995,382.159 131.156,383.592 130.259,384.606C128.051,384.832 128.497,383.061 128.215,381.981C127.919,380.853 126.069,379.336 125.881,378.773C125.641,378.045 126.003,377.218 125.881,376.438C124.777,369.2 119.066,361.943 118.004,353.681C114.632,350.163 114.979,344.123 113.335,338.806C112.119,334.846 109.451,331.596 109.253,327.425C108.779,326.345 107.788,325.781 107.501,324.508C108.779,322.08 106.092,318.637 107.501,316.636C104.984,313.512 100.061,312.794 95.834,311.38C95.566,310.586 95.294,312.16 94.373,311.676C92.513,309.06 87.99,309.111 85.331,307.298C82.26,310.717 85.397,315.847 85.04,320.135ZM91.456,342.596C89.188,338.58 85.937,334.888 85.04,329.759C84.176,324.837 82.339,322.258 80.954,318.092C79.352,313.268 79.244,307.538 75.703,304.09C74.256,303.991 73.42,304.781 71.33,304.09C67.441,306.082 70.508,312.169 71.621,315.175C71.024,319.755 73.518,322.474 74.247,326.551C74.932,327.326 76.022,327.697 76.872,328.303C75.181,330.102 76.454,333.16 76.29,336.18C77.549,337.932 79.263,339.233 79.207,342.305C78.864,343.324 78.079,343.902 78.037,345.222C80.696,350.539 85.609,353.601 88.54,358.641C89.827,358.721 90.799,359.111 92.335,358.932C93.885,352.808 91.109,348.031 91.456,342.596ZM66.37,313.714C65.581,311.432 63.758,309.163 63.162,307.007C61.973,302.723 62.227,298.548 58.493,297.96C56.567,297.66 55.956,298.571 54.702,299.421C53.664,303.672 57.051,306.208 55.285,310.215C57.845,314.898 58.408,322.521 58.784,327.134C60.62,328.486 61.273,331.14 63.162,332.681C63.875,333.263 65.073,333.221 65.787,333.846C66.6,334.555 66.708,335.903 67.534,336.763C68.319,337.58 69.578,337.843 70.165,338.515C71.405,339.933 71.494,343.597 74.538,342.305C74.848,340.454 72.87,340.187 72.203,338.806C70.822,335.945 72.142,333.306 72.203,330.929C72.288,327.683 69.409,324.48 70.456,320.717C67.83,320.257 67.53,317.073 66.37,313.714ZM539.842,295.044C540.289,296.26 542.28,297.683 543.346,296.504C543.309,295.762 543.29,295.006 542.468,295.044C542.271,295.368 541.143,296.204 541.012,295.631C540.871,294.715 541.796,294.86 541.886,294.17C540.467,293.724 540.787,295.02 539.842,295.044ZM40.113,296.504C39.315,300.177 42.119,301.953 42.739,304.381C42.809,304.649 42.415,305.626 42.448,306.133C42.565,307.979 43.974,309.402 43.03,311.38C44.289,314.015 46.102,316.086 48.573,317.509C48.732,319.919 51.386,321.253 53.241,321.009C53.669,317.115 52.264,315.659 53.241,312.841C52.668,308.04 48.042,305.828 49.155,300.3C48.3,298.674 47.821,297.237 48.281,295.631C46.083,292.145 42.274,293.766 40.113,296.504ZM35.736,293.879C37.023,288.773 29.216,286.42 27.572,291.253C27.986,296.575 31.41,298.886 32.819,303.216C34.613,303.879 36.417,303.921 37.488,302.629C37.492,298.51 36.98,296.711 35.736,293.879ZM17.065,283.376C16.99,285.495 19.24,285.288 18.526,288.045C20.7,289.492 23.274,287.134 22.607,284.837C20.813,284.128 19.104,282.178 17.065,283.376ZM59.075,284.546C58.798,280.783 53.627,282.122 50.033,281.915C50.08,283.132 50.132,284.353 49.451,284.837C48.018,284.015 47.112,285.124 46.534,286.002C48.389,289.412 50.616,292.601 56.158,291.544C56.191,288.35 59.277,287.228 59.075,284.546ZM61.118,289.797C61.682,292.798 66.257,293.052 70.456,292.418C72.941,289.759 75.153,285.48 73.082,281.333C70.512,281.103 68.911,281.835 67.243,282.503C65.947,282.244 65.848,280.788 64.618,280.459C65.905,284.94 60.442,286.176 61.118,289.797ZM30.193,283.667C31.095,285.809 36.111,286.213 36.614,283.376C35.21,282.056 33.791,280.751 32.236,279.586C31.358,280.751 30.033,281.465 30.193,283.667ZM93.5,280.751C92.025,280.441 92.029,281.61 91.165,281.915C89.855,288.773 85.928,293.019 84.453,299.712C86.036,302.704 89.798,303.512 93.5,304.381C92.386,301.464 93.316,297.293 96.708,296.504C97.736,290.267 100.733,284.151 99.042,278.416C98.164,278.609 98.586,280.098 97.581,280.168C95.51,280.591 96.121,278.322 95.252,277.543C94.603,278.548 93.166,278.768 93.5,280.751ZM24.068,278.707C24.571,277.275 26.191,278.566 26.694,276.96C25.557,275.551 23.754,277.942 24.068,278.707ZM80.663,281.333C79.888,281.333 78.995,281.446 78.619,281.042C77.628,283.945 76.816,287.016 74.247,288.336C75.12,291.859 71.344,295.49 73.664,298.839C76.139,299.999 79.399,299.712 81.832,300.3C82.692,299.163 82.029,298.317 82.123,296.504C85.599,291.324 84.796,282.77 87.083,276.96C84.322,274.579 82.255,279.708 80.663,281.333ZM47.99,274.334C49.371,274.259 49.911,274.212 50.616,274.043C50.757,272.554 47.896,273.24 47.99,274.334ZM30.193,267.04C31.198,269.196 28.995,270.398 29.028,273.165C30.4,275.584 33.984,276.969 37.196,275.208C38.911,276.415 39.338,278.9 42.448,278.707C43.007,275.96 45.83,275.476 47.699,274.043C47.098,273.959 47.117,273.264 46.825,272.874C42.457,273.527 37.61,276.068 35.153,272C35.524,268.834 34.237,264.194 37.488,262.08C37.427,261.751 37.164,261.629 36.905,261.497C34.721,263.395 32.063,264.823 30.193,267.04ZM183.936,250.121C182.804,256.42 176.947,261.681 177.811,269.957C177.121,271.601 175.514,272.334 176.059,275.208C178.783,276.73 182.574,275.917 184.227,274.043C183.927,270.53 187.144,268.271 187.726,264.997C188.267,261.972 188.168,260.041 189.187,257.707C189.605,256.739 190.488,256.462 190.643,255.373C190.902,253.625 189.601,251.526 190.061,249.534C187.661,249.318 185.599,249.046 183.936,250.121ZM206.98,261.789C207.214,260.901 207.943,260.366 208.149,259.454C208.497,257.923 208.262,256.162 208.732,254.494C209.844,250.544 212.569,244.771 207.27,246.326C205.683,248.783 204.856,253.151 204.354,257.411C203.532,264.466 198.779,271.798 203.48,274.043C205.509,272.221 205.64,266.908 206.98,261.789ZM249.572,45.033C246.998,48.218 241.159,50.717 244.029,56.706C243.955,57.955 242.311,59.031 241.991,60.205C241.545,61.825 242.273,63.765 241.7,65.451C240.493,68.998 238.844,72.732 237.322,75.959C239.656,79.354 236.876,83.878 235.279,86.752C235.213,92.564 232.55,97.186 232.653,102.217C231.77,103.372 231.63,105.275 230.319,106.007C231.079,110.488 228.492,112.405 228.571,117.384C228.045,118.252 227.421,119.018 227.111,120.009C225.561,124.979 224.706,130.554 223.607,135.763C222.86,139.323 221.08,143.494 220.399,146.266C219.83,148.605 219.629,151.437 218.651,153.851C218.13,155.133 218.938,156.885 218.651,158.224C218.271,160.014 216.58,161.291 216.026,163.184C215.664,164.424 215.993,165.791 215.735,167.271C215.354,169.427 213.954,171.343 213.4,173.395C212.86,175.382 213.048,177.529 212.527,179.52C211.461,183.565 208.948,187.416 209.61,192.357C207.637,193.569 207.961,194.936 207.567,197.609C207.168,200.305 205.091,203.231 204.65,205.777C203.49,212.465 202.992,219.492 199.981,224.739C199.074,228.891 199.173,234.048 195.603,235.532C194.683,232.644 195.777,228.867 196.482,224.156C197.468,217.529 199.427,213.997 199.981,208.111C203.292,205.504 201.69,201 202.897,197.026C203.133,196.251 203.879,195.819 204.063,194.983C204.392,193.518 203.988,191.906 204.354,190.314C205.293,186.289 207.811,182.357 208.44,178.355C209.084,174.26 210.061,172.592 210.775,169.605C212.081,164.138 212.203,158.238 215.152,153.56C217.172,144.396 221.047,137.088 221.569,126.425C224.95,118.548 225.274,108.844 229.154,101.921C228.98,97.304 231.601,93.128 232.653,89.087C234.015,83.868 233.377,78.763 235.862,74.207C235.579,73.422 235.218,72.708 234.988,71.872C235.777,69.636 235.739,66.574 236.153,63.704C236.453,61.628 238.295,58.819 236.153,57.87C233.532,60.303 232.038,63.869 229.154,66.039C227.463,73.436 223.283,78.918 224.777,87.335C224.279,87.612 224.189,88.302 223.607,88.5C223.133,93.105 221.334,97.656 220.108,102.508C219.187,106.167 218.995,110.164 217.773,113.593C217.008,115.763 214.809,117.149 215.444,119.718C215.077,120.423 213.973,120.385 213.983,121.47C214.574,131.202 208.576,140.657 207.858,150.056C207.177,151.226 206.383,152.282 206.688,154.434C203.546,156.735 205.669,164.302 202.315,166.392C201.353,170.108 201.851,174.25 200.563,177.773C200.206,178.759 199.145,179.45 198.816,180.399C197.778,183.348 198.22,186.416 197.646,189.44C197.139,192.108 195.406,195.565 194.73,197.317C193.113,201.507 192.748,206.542 191.522,211.028C190.592,214.415 189.305,217.951 189.187,220.948C186.914,224.804 186.214,230.225 185.688,235.824C184.425,236.505 184.481,238.515 183.062,239.036C179.708,236.721 182.438,231.291 183.062,228.534C183.555,226.326 183.264,223.964 183.645,221.531C183.851,220.192 184.603,218.839 184.81,217.444C185.002,216.148 184.833,214.607 185.101,213.362C186.66,206.152 190.765,202.62 190.643,194.401C192.034,191.549 193.837,188.717 194.439,185.354C194.743,183.649 194.161,181.723 194.73,180.108C195.039,179.21 196.068,178.628 196.482,177.773C198.182,174.217 198.835,169.995 199.399,166.392C199.554,165.378 200.329,164.499 200.563,163.475C201.179,160.817 200.92,157.82 201.437,155.016C201.982,152.062 204.227,149.577 203.771,145.974C206.256,141.146 205.669,136.759 208.44,132.264L208.44,129.347C210.37,127.191 210.394,123.128 211.648,120.3C212.348,120.122 213.767,120.667 213.983,120.009C213.64,118.755 212.625,119.69 211.94,119.135C212.362,112.762 215.937,105.984 216.9,100.174C217.036,99.361 216.782,98.361 216.9,97.548C217.553,92.968 221.916,90.942 220.399,86.17C222.851,82.84 221.667,77.358 223.024,74.207C221.963,74.296 221.127,74.16 220.399,73.915C219.662,76.114 217.755,76.846 216.609,77.997C216.176,78.434 216.209,79.43 215.735,80.04C215.176,80.759 214.298,80.942 213.983,81.496C212.372,84.38 213.696,91.252 209.61,91.71C209.948,95.087 209.69,98.722 208.732,101.339C208.356,102.372 207.144,103.635 206.98,104.547C205.749,111.545 203.199,118.229 201.437,124.969C201.094,125.885 199.736,125.796 199.69,127.008C199.943,128.215 200.601,129.013 200.855,130.22C200.704,131.23 200.066,131.766 199.69,132.555C200.986,136.998 196.998,139.497 197.646,143.349C195.237,145.993 194.692,150.507 194.439,155.307C193.02,157.454 192.076,159.694 192.104,162.602C188.934,166.867 189.995,173.846 186.562,178.064C186.129,186.876 182.499,193.254 180.728,201.399C180.446,202.695 180.775,204.189 180.437,205.486C179.826,207.825 178.253,210.206 177.515,212.489C176.646,215.175 175.139,218.045 174.89,220.07C174.72,221.479 175.397,222.822 175.181,224.156C174.998,225.307 173.8,226.364 173.433,227.655C172.457,231.108 172.419,233.339 171.973,235.824C169.803,236.96 169.652,240.117 166.726,240.492C166.106,235.406 167.717,229.464 168.473,223.865C169.727,222.592 170.813,221.145 170.808,218.614C174.162,215.105 175.481,209.553 175.768,203.734C177.6,202.512 178.243,199.347 177.811,196.735C179.883,194.837 179.093,191.488 180.145,188.567C180.902,186.458 182.654,184.767 183.354,182.733C184.039,180.728 183.974,178.224 184.518,176.021C184.951,174.283 185.974,172.686 186.27,171.061C187.242,165.73 187.637,160.906 189.479,156.181C189.666,155.021 188.708,155.011 188.896,153.851C190.775,152.273 191.451,150.094 192.395,147.726C192.832,146.632 193.889,146.078 194.147,145.101C194.904,142.217 194.331,138.53 195.021,135.472C195.171,134.809 196.031,134.133 196.19,133.429C196.881,130.291 196.853,127.999 199.107,126.717C199.178,125.674 198.229,125.65 198.229,124.678C200.859,122.639 199.253,117.628 200.272,114.175C201.024,111.63 202.992,110.869 204.063,108.924C203.076,103.363 205.928,97.426 204.063,92.588C200.145,92.409 197.59,97.229 197.938,101.339C193.113,103.908 195.801,113.983 190.352,115.927C188.459,113.706 192.062,109.568 190.643,107.172C189.563,106.237 189.554,108.243 188.018,107.755C186.937,110.366 184.204,111.334 182.475,113.302C182.461,115.425 181.019,116.125 181.019,118.257C177.633,119.76 179.657,124.875 177.224,127.304C177.111,134.091 173.88,140.291 172.56,146.848C169.37,152.414 168.427,160.22 165.265,165.81C165.458,167.562 164.997,168.656 164.974,170.187C161.818,174.128 161.771,181.183 159.432,185.941C159.93,191.169 155.806,194.927 155.054,199.943C154.88,201.117 155.303,202.254 155.054,203.442C154.81,204.626 153.758,205.528 153.302,206.655C151.63,210.788 150.986,215.65 150.094,220.07C147.943,223.583 145.19,227.97 146.303,233.78C142.095,236.209 144.627,246.862 138.135,246.035C137.21,242.451 139.869,238.543 140.761,234.95C139.728,231.08 142.17,228.097 143.095,226.199C143.899,224.551 143.781,222.198 144.552,220.361C144.993,219.323 146.064,218.271 146.595,217.153C148.394,213.391 150.639,208.139 150.094,203.442C154.472,198.872 153.391,188.844 157.097,183.607C157.285,182.179 157.149,182.235 157.097,180.69C162.039,173.142 163.523,163.936 165.265,153.264C166.881,148.882 169.366,144.044 169.056,138.68C170.437,135.199 170.164,130.061 171.39,126.425C168.985,123.621 168.497,126.627 166.726,128.764C166.557,128.962 165.759,128.854 165.557,129.056C163.574,131.038 163.194,134.011 163.222,136.345C162.875,137.75 161.489,138.116 161.179,139.553C161.423,140.188 161.935,140.549 161.761,141.597C161.292,144.438 158.243,146.449 159.723,149.474C158.243,152.123 157.478,154.828 156.806,157.933C156.303,160.263 154.509,162.386 153.889,164.645C153.316,166.716 153.579,169.276 152.72,171.352C152.133,172.775 150.836,173.809 150.39,175.147C148.967,179.37 148.863,185.354 147.473,189.149C146.078,191.164 144.039,193.311 143.387,195.861C143.157,196.749 143.56,197.557 143.387,198.482C143.189,199.516 142.405,200.319 142.217,201.399C142.071,202.259 142.4,203.419 142.217,204.316C141.005,210.225 136.646,215.575 136.383,222.113C134.368,225.058 133.034,228.679 132.593,233.198C129.544,237.35 129.695,244.696 125.59,247.787C125.543,248.614 125.843,249.788 125.007,249.825C122.607,247.571 125.815,242.273 125.881,238.745C127.403,237.834 127.445,235.443 128.506,234.076C128.746,230.704 129.451,228.914 130.259,226.199C132.955,217.139 135.599,207.98 138.135,199.652C138.892,198.116 140.305,198.078 141.052,196.735C142.48,194.161 141.743,190.521 142.508,187.689C142.771,186.721 143.889,186.082 144.26,185.063C145.364,182.029 145.303,178.262 146.303,175.147C146.726,173.823 148.173,172.86 148.638,171.644C149.605,169.121 149.272,166.444 151.263,164.936C151.123,160.516 152.733,157.848 153.889,154.725C152.283,151.644 155.482,148.13 154.18,144.514C145.308,144.645 147.562,154.105 143.387,158.807C143.551,164.419 141.574,167.886 139.592,171.352C138.243,177.59 137.107,184.039 133.758,188.271C133.326,196.012 129.573,200.427 128.798,207.82C123.373,214.837 122.565,226.477 118.004,234.368C117.778,236.476 117.337,238.365 117.13,240.492C116.731,241.164 115.717,241.216 115.087,241.662C115.731,247.172 112.565,250.084 111.297,252.747C109.78,251.761 110.803,249.318 110.418,247.204C113.49,244.71 112.504,240.633 113.922,236.406C114.552,234.527 115.181,232.803 115.674,230.281C116.576,225.626 118.84,222.066 120.63,218.322L120.63,215.988C123.081,212.508 122.743,206.237 125.881,203.442C125.552,198.163 130.259,196.547 129.089,190.023C131.381,187.651 132.433,184.03 132.593,179.52C135.984,176.519 134.312,170.028 137.553,166.688C137.919,164.138 139.216,162.517 139.009,159.394C132.8,158.365 131.653,164.852 128.798,168.144C128.901,172.329 127.473,174.988 125.298,176.899C124.293,184.739 121.447,190.746 120.047,198.191C117.506,199.168 117.75,201.963 118.004,204.903C117.591,206.199 116.266,206.937 115.674,208.111C114.387,210.662 114.12,213.865 113.044,216.57C112.382,218.243 110.475,219.671 109.836,221.531C109.305,223.085 109.639,225.913 108.962,227.655C108.54,228.111 108.229,228.675 107.501,228.825C106.29,232.338 105.909,236.415 104.585,239.91C104.181,240.972 103.021,241.761 102.546,242.827C101.071,246.148 101.001,251.596 97.29,252.451C97.229,252.226 97.051,252.113 96.708,252.16C96.656,249.097 98.131,247.557 97.877,244.288C104.359,230.704 108.671,214.325 114.505,199.361L114.505,196.735C118.023,194.753 116.496,190.361 117.422,186.524C118.225,183.193 122.25,180.723 120.63,176.899C119.46,176.106 117.581,177.496 116.548,178.355C115.571,179.168 113.415,180.854 112.753,181.564C109.075,185.514 110.291,194.424 106.045,197.317C103.537,207.904 100.55,218.111 94.96,226.782C95.256,229.708 93.997,231.07 92.917,232.616C93.208,236.697 91.405,238.689 89.709,240.784C90.24,242.794 90.038,244.983 88.248,245.452C86.21,244.367 87.976,241.991 88.248,240.492C89.103,235.814 89.808,232.315 90.874,228.243C93.114,226.495 92.588,221.981 94.082,219.487C96.576,217.12 98.004,213.687 98.168,208.985C100.602,205.96 101.517,197.956 101.376,194.109C98.709,194.805 97.215,199.046 94.082,200.234C93.274,203.315 92.245,206.176 91.165,208.985C90.113,209.807 89.653,209.769 89.709,211.319C88.962,210.807 88.286,210.572 87.666,211.319C87.53,213.01 88.723,213.377 88.54,215.114C86.952,218.581 86.919,223.602 83.579,225.326C83.467,226.373 83.204,227.28 82.997,228.243C79.211,232.62 80.263,241.845 75.999,245.744C76.417,250.3 73.814,251.587 72.495,254.494C71.71,256.227 70.339,259.187 70.456,260.328C70.827,264.067 76.877,262.005 75.411,267.04C71.212,269.816 65.059,268.895 62.283,273.165C60.437,272.423 58.723,272.418 57.91,271.126C54.449,265.612 63.998,264.579 67.826,263.245C67.586,261.934 66.088,261.873 65.787,260.624C68.399,257.763 72.316,254.738 71.33,249.243C74.599,245.805 72.729,237.228 78.037,235.824C76.769,230.333 81.32,226.909 81.536,222.991C81.611,221.718 80.799,220.3 80.954,218.905C81.156,217.144 82.767,215.856 82.706,213.945C77.206,218.849 71.565,223.611 68.995,231.451C69.225,231.996 69.484,232.517 69.578,233.198C67.234,237.176 65.679,241.944 62.87,245.452C63.03,246.782 62.349,247.27 62.579,248.661C58.765,252.822 58.155,260.182 55.285,265.288C53.688,265.344 52.518,265.828 51.198,266.162C49.531,265.006 50.611,262.075 51.489,260.915C51.659,256.603 55.341,253.292 58.201,250.704C58.032,245.871 60.837,244.006 61.41,239.91C56.37,237.425 53.443,243.771 50.325,246.035C50.123,248.708 48.765,253.043 45.947,254.79C46.435,257.561 43.758,258.459 42.739,260.037C41.635,261.746 41.644,263.602 40.7,265.87C42.471,269.497 47.586,267.035 51.489,267.04C52.701,268.886 53.007,270.798 51.781,272.582C54.622,272.366 55.364,274.255 57.328,274.917C61.09,272.094 63.007,276.683 65.496,277.834C67.328,276.166 69.197,274.536 71.33,273.165C78.112,274.381 89.526,268.914 93.791,275.791C96.966,275.579 97.905,275.903 99.333,277.543C100.85,277.726 101.672,276.899 102.837,277.543C103.481,279.529 104.171,280.774 103.711,283.376C102.457,290.506 98.004,298.782 96.125,305.546C99.568,306.086 102.678,308.205 106.337,307.589C106.571,301.309 110.245,298.468 111.588,293.296C109.812,290.065 112.654,286.251 112.17,283.376C111.64,280.21 108.845,280.535 106.628,278.999C109.188,277.087 112.941,276.368 116.839,275.791C117.934,272.803 118.676,269.464 120.047,266.749C119.122,265.034 119.662,262.85 120.921,261.789C121.884,261.389 123.255,261.399 124.425,261.206C126.435,266.763 119.662,267.937 121.217,274.917C122.767,275.213 124.411,275.415 124.716,276.96C123.683,278.064 123.161,279.684 122.09,280.751C118.544,281.779 117.553,285.354 115.378,287.754C114.772,287.923 115.801,288.853 115.674,289.501C112.837,294.527 113.542,301.281 109.836,306.716C108.784,307.12 107.755,307.547 106.919,308.172C107.971,310.633 111.621,312.761 114.505,313.132C117.036,313.461 118.586,312.535 120.047,312.841C121.719,313.193 122.626,314.813 124.425,315.757C124.97,316.044 126.186,315.959 127.05,316.345C129.422,317.387 130.611,318.693 133.175,317.801C137.675,320.868 143.537,323.343 149.803,323.052C152.02,325.307 155.618,326.18 159.723,326.551C161.202,328.045 163.208,330.051 165.847,329.468C166.679,330.196 166.862,331.568 168.182,331.802C169.093,330.769 170.343,330.074 171.099,328.886C169.864,324.931 172.663,321.563 173.725,317.801C174.918,313.555 175.256,309.182 177.224,305.842C177.271,296.401 183.79,289.778 178.976,281.915C176.829,281.38 175.622,281.854 174.307,282.794C172.663,281.324 172.823,276.998 174.307,275.499C173.762,274.682 173.161,273.921 172.851,272.874C173.513,270.596 175.336,266.88 176.059,262.662C176.364,260.892 176.115,258.773 176.641,257.12C177.642,254.001 179.906,252.498 177.811,249.825C175.392,250.525 174.331,252.573 170.808,252.16C169.831,250.835 170.225,249.929 170.225,247.787C171.949,247.467 172.696,246.171 174.016,245.452L177.811,245.452C181.061,242.418 186.087,242.925 191.813,242.536C194.556,244.372 191.592,246.537 191.226,248.661C191.639,249.807 193.814,249.187 194.439,250.121C195.641,252.362 194.509,255.067 194.439,257.707C190.968,262.503 190.841,270.638 187.726,275.791C187.849,279.417 186.092,284.893 184.518,289.21C186.613,294.424 182.217,297.965 183.354,302.338C180.549,306.664 179.962,314.348 178.393,320.717C176.44,322.46 175.293,325.006 174.89,328.303C174.589,329.167 173.297,329.041 173.142,330.051C175.261,331.685 178.163,331.643 180.728,333.263C180.991,326.387 184.49,319.191 185.688,311.38C186.129,308.486 186.125,306.279 186.852,304.09C187.346,302.606 188.769,301.511 189.479,300.008C191.597,295.523 190.474,290.774 191.813,285.711C192.968,285.02 194.016,284.217 195.899,284.255C197.778,286.969 195.857,289.741 194.439,291.544C195.232,299.628 190.77,305.546 191.226,314.884C190.864,315.588 189.755,315.551 189.77,316.636C188.107,320.539 188.741,324.25 187.726,327.425C187.074,329.477 185.275,330.901 185.392,333.554C186.679,334.992 187.947,336.443 190.352,336.763C192.532,335.922 191.944,333.648 192.395,331.802C193.593,326.918 194.96,321.168 195.899,316.345C195.486,314.395 196.872,310.187 197.938,307.881C198.093,306.753 197.416,306.457 197.646,305.255C199.981,300.046 199.703,291.192 200.272,285.128C201.179,285.321 202.917,284.997 202.897,282.794C201.089,281.662 197.839,282.455 195.021,281.915C193.302,279.111 193.043,274.161 195.899,272.582C196.115,270.3 196.064,269.482 197.355,268.205C197.75,263.155 199.601,257.035 200.272,251.286C198.657,248.914 197.186,246.401 196.773,242.827C197.764,240.807 200.873,240.901 202.897,239.91C204.748,235.523 206.167,230.896 206.106,225.908C208.013,214.772 212.587,203.734 213.4,193.236C214.692,190.244 215.678,186.951 217.482,184.48C217.641,177.543 219.718,172.517 220.399,166.101C222.536,164.452 221.573,162.691 221.569,160.559C221.554,154.809 227.078,149.563 225.655,143.931C229.206,136.397 230.328,126.435 232.362,117.384C234.124,116.162 233.94,114.344 234.697,112.132C235.303,110.366 237.073,109.211 237.322,108.051C237.74,106.073 236.951,103.833 237.322,101.921C237.472,101.132 237.965,100.408 238.196,99.591C238.722,97.708 238.731,95.679 239.361,94.044C239.792,92.935 240.944,92.043 241.409,90.834C242.151,88.871 241.766,85.686 242.574,83.253C243.194,81.379 244.41,80.289 244.616,78.875C244.795,77.612 244.226,76.334 244.325,75.08C244.654,70.721 247.026,66.579 247.242,61.952C248.328,60.707 249.219,59.265 250.159,57.87C248.276,54.944 248.877,48.213 250.742,45.616C249.943,45.832 250.155,45.038 249.572,45.033ZM267.66,27.823C266.543,29.834 267.52,30.961 267.078,33.948C266.867,35.386 265.631,36.541 265.326,38.035C265.204,38.631 265.664,39.453 265.617,40.073C265.476,42.046 264.743,45.682 264.161,47.368C263.86,48.227 262.921,48.814 262.7,49.702C262.334,51.205 262.973,52.91 262.7,54.371C262.48,55.555 261.474,56.48 261.244,57.579C260.582,60.75 261.174,64.122 258.327,66.039C258.684,71.107 258.623,77.058 254.24,78.875C254.048,72.45 255.392,65.057 257.745,60.205C258.966,50.74 262.09,42.939 262.409,33.366C261.357,32.779 259.628,32.093 258.619,33.07C257.796,36.771 258.003,41.675 255.41,44.742C255.044,53.77 250.169,61.088 250.742,68.373C248.971,72.079 249.511,77.495 246.946,80.914C247.567,83.944 247.637,86.827 246.073,89.96C245.443,91.219 244.091,91.78 243.738,93.17C243.104,95.674 243.969,98.548 243.156,101.047C242.442,103.241 240.826,104.918 240.239,107.172C239.299,110.789 239.558,114.974 238.487,118.553C238.219,119.455 237.538,120.019 237.322,120.883C236.679,123.461 236.928,126.181 234.988,128.177C234.495,132.644 233.118,137.12 232.945,141.014C232.221,142.235 231.362,143.32 230.61,144.514C231.512,147.379 230.014,150.056 228.863,151.808C228.661,158.764 225.289,163.875 224.485,171.061C224.086,171.827 223.156,172.066 223.024,173.104C224.739,178.717 220.037,181.742 219.817,186.815C219.647,190.713 219.516,193.837 218.651,197.609C217.21,203.903 214.232,209.821 214.565,215.988C213.786,218.416 212.395,220.234 210.775,221.822C213.87,225.932 206.683,231.648 210.484,236.406C213.837,235.871 213.954,232.104 216.026,230.281C216.702,225.255 216.618,218.28 218.36,212.78C219.037,210.633 221.136,209.328 220.108,206.655C223.377,195.796 228.632,185.251 230.319,171.935C231.033,170.704 232.489,170.216 232.945,168.727C230.662,164.791 233.861,160.591 233.818,156.181C236.228,154.607 236.317,150.704 236.153,146.557C238.365,143.917 238.21,140.84 238.487,137.515C238.661,135.434 240.047,133.259 240.53,131.094C241.667,125.988 243.255,121.329 243.738,115.927C247.374,109.347 247.346,99.112 250.742,92.297C249.037,87.819 252.165,83.779 254.24,81.205C255.829,82.332 256.157,85.555 255.993,87.626C255.716,91.078 253.006,93.076 252.489,95.505C252.165,97.055 252.785,98.652 252.489,100.174C252.254,101.395 250.897,102.921 250.451,104.547C249.633,107.539 250.173,109.572 248.407,110.671C248.13,112.55 247.398,114.654 248.407,116.219C246.063,123.306 244.213,130.887 242.865,138.971C238.675,141.512 242.7,147.318 238.778,150.347C239.361,155.335 237.163,159.417 236.153,163.475C235.796,164.917 236.138,166.435 235.862,167.853C235.016,172.188 232.094,175.044 232.071,179.816C232.066,180.62 232.714,181.578 232.653,182.437C232.602,183.17 231.841,183.954 231.78,184.772C231.719,185.57 232.174,186.397 232.071,187.106C231.592,190.342 228.966,192.55 228.571,195.274C228.205,197.773 229.239,199.732 228.571,201.986C228.337,202.771 227.59,203.475 227.402,204.316C227.196,205.246 227.585,206.246 227.402,207.238C226.867,210.135 224.34,213.015 225.655,216.279C223.64,219.126 223.339,223.691 221.569,226.782C222.043,227.778 221.911,229.295 221.277,229.99C220.478,230.849 217.539,229.558 217.191,230.864C220.366,231.399 223.452,237.242 218.069,236.697C216.604,237.768 214.758,240.558 216.317,242.827C215.895,243.86 215.683,245.11 215.152,246.035C216.322,249.844 213.476,252.357 214.274,255.955C212.987,257.336 213.443,259.121 213.109,260.915C212.682,263.193 211.028,265.429 210.484,267.914C209.493,272.413 209.413,277.045 208.149,280.168C207.365,282.103 205.322,282.282 204.354,283.667C204.908,284.771 206.186,285.142 206.397,286.584C205.053,288.895 205.937,291.394 205.523,293.879C205.016,296.904 203.462,299.811 202.897,302.925C202.668,304.175 202.926,305.692 202.606,307.007C202.019,309.402 200.093,310.999 201.146,313.423C200.69,314.231 200.653,315.462 199.981,316.053C201.024,325.307 194.861,330.722 196.19,339.388C198.967,339.435 199.169,340.99 201.733,339.971C201.644,326.777 207.726,317.519 208.44,304.964C209.929,301.375 212.226,298.153 210.775,293.879C212.32,292.399 211.742,290.821 212.236,288.336C212.414,287.42 213.231,286.584 213.4,285.711C213.715,284.09 213.1,282.24 213.4,280.751C213.776,278.9 215.424,277.538 215.735,275.791C216.256,272.836 214.791,269.28 217.482,267.04C217.492,264.691 217.064,262.099 217.773,259.454C218.102,258.238 219.243,257.406 219.525,256.246C220.573,251.977 220.343,247.449 220.986,243.409C221.709,242.578 222.33,241.643 223.024,240.784C223.17,239.863 222.503,239.755 222.733,238.745C222.846,237.782 224.288,238.153 224.194,236.993C223.142,232.634 225.97,230.14 226.82,226.491C227.196,224.865 226.66,222.897 227.111,221.239C227.717,219.004 229.521,217.444 229.737,215.697C230,213.569 229.117,211.498 229.445,209.572C230.065,205.922 234.528,204.006 232.362,199.943C232.978,198.055 234.607,196.787 235.279,194.983C236.9,190.657 236.166,185.194 237.322,180.399C237.548,179.45 238.266,178.445 238.487,177.482C238.774,176.242 238.544,174.833 238.778,173.395C239.018,171.954 239.934,170.648 240.239,169.309C240.859,166.585 240.939,164.997 243.447,164.063C243.269,163.071 241.582,163.593 241.7,162.311L241.7,156.181C243.682,153.499 244.499,149.647 244.616,145.101C246.308,141.733 246.655,137.026 248.699,134.011L248.699,131.681C251.568,126.576 251.822,118.854 254.532,113.593C253.818,111.409 255.058,109.727 254.532,107.463C255.5,106.294 255.673,104.326 256.575,103.09C255.777,102.015 256.247,100.277 255.993,99.3C257.923,96.792 258.041,94.021 258.619,90.543C259.327,86.24 261.193,82.06 262.118,77.706C262.799,74.507 263.123,71.276 263.87,68.082C264.326,66.114 265.5,64.254 265.908,62.243C266.937,57.227 265.65,53.14 269.121,50.867C268.6,43.498 272.973,33.93 271.747,25.78C270.925,25.531 270.549,24.841 269.412,24.907C269.525,26.795 268.191,26.865 267.66,27.823ZM283.123,17.903C283.696,17.814 283.701,18.298 283.997,18.486C284.189,18.096 284.621,17.946 285.166,17.903C285.255,15.964 283.156,16.396 283.123,17.903ZM258.327,124.387C257.689,125.5 256.232,125.791 255.41,126.717C254.776,134.086 255.979,141.094 252.198,145.974C252.686,146.458 252.433,147.684 252.489,148.6C251.169,153.443 250.31,157.449 249.572,163.184C246.604,164.673 248.111,167.773 247.825,170.479C247.683,171.784 246.599,172.977 246.364,174.269C246.223,175.058 246.698,175.833 246.655,176.604C246.467,179.981 244.025,183.062 244.029,185.941C243.959,187.083 245.087,187.026 244.908,188.271C244.048,189.652 242.926,190.765 241.409,191.484C242.419,194.452 239.952,196.773 239.069,199.652C238.149,202.663 238.666,206.538 237.905,209.863C237.411,212.024 235.739,213.785 235.279,215.697C235.166,216.152 235.631,216.66 235.57,217.153C235.049,221.578 231.367,225.866 232.653,229.99C231.535,231.653 231.343,235.429 232.945,236.697C236.89,237.068 240.802,235.946 242.865,238.454C242.874,244.955 235.739,244.283 229.445,243.992C228.304,247.594 227.294,250.91 226.529,254.494C225.876,257.543 225.805,260.563 225.655,264.123C225.434,269.154 223.119,273.207 225.068,277.543C227.938,276.622 235.89,276.288 236.735,279.586C237.327,281.868 235.105,283.888 232.945,284.837C228.933,282.69 225.129,281.868 220.986,282.207C220.098,285.349 223.081,287.03 223.024,289.501C222.954,292.841 219.901,295.128 218.36,297.96C218.135,299.064 218.713,299.355 218.651,300.3C218.327,301.338 216.89,301.258 216.9,302.629C218.285,303.902 219.238,305.25 218.943,307.007C218.638,308.82 215.242,309.712 216.609,311.967C216.082,312.704 214.819,312.704 214.565,313.714C214.236,315.602 215.317,316.077 215.444,317.509C214.88,318.989 214.387,320.539 212.818,321.009C213.457,323.794 211.23,325.959 210.775,328.594C214.157,330.224 213.579,334.212 214.857,337.636C213.377,338.294 213.696,340.75 213.109,342.305C214.913,341.718 216.585,342.512 218.943,342.305C220.371,342.183 221.987,341.102 223.607,340.849C224.086,340.774 224.584,341.178 225.068,341.14C227.562,340.933 230.098,339.543 232.653,339.097C237.275,338.284 241.418,339.271 244.325,337.054C245.415,336.744 245.152,337.782 246.073,337.636C254.626,335.523 263.109,333.996 271.456,333.554C273.32,332.019 276.153,331.446 279.037,330.929C279.506,328.651 279.548,326.528 281.08,324.804C283.588,323.395 288.337,326.082 285.166,329.177C288.421,329.449 291.578,329.839 295.082,329.177C296.246,328.961 297.12,328.035 298.29,327.721C299.318,327.444 300.539,327.646 301.793,327.425C303.273,327.167 304.856,326.171 306.171,325.969C311.403,325.161 316.918,325.903 321.629,323.634C321.826,322.47 321.817,321.098 322.216,320.135C323.175,320.732 325.17,320.29 326.589,320.426C327.209,321.07 327.914,321.633 328.341,322.47C336.406,322.728 341.126,320.661 348.468,319.844C349.313,320.267 350.201,320.642 350.802,321.3C352,320.29 354.757,320.182 356.636,320.717C357.124,320.328 356.734,319.064 357.223,318.674C359.087,319.445 359.679,317.011 361.014,316.345C368.886,317.035 372.606,312.507 379.393,314.297C380.243,312.714 382.794,313.667 384.644,313.423C387.518,313.047 390.008,311.718 391.934,311.089C394.668,310.201 398.261,309.877 400.398,309.341C403.743,308.501 408.421,308.524 411.483,308.172C412.343,308.073 413.376,307.218 414.4,307.007C421.859,305.471 429.092,305.302 436.57,304.09C437.185,303.827 437.514,303.282 438.031,302.925C443.3,304.278 459.393,296.467 456.992,307.298C452.084,306.659 448.294,311.572 443.864,308.463C441.962,309.651 439.214,311.15 436.57,309.924C429.421,312.563 421.662,312.874 414.4,315.175C413.423,314.593 411.901,314.564 410.604,314.297C404.132,317.951 394.644,314.057 389.313,318.97C386.358,317.805 384.061,320.384 381.436,320.717C379.971,320.905 378.58,320.375 377.059,320.426C374.381,320.511 371.568,321.826 368.599,322.47C365.26,323.193 361.901,323.071 359.553,323.926C355.419,321.38 351.92,325.757 347.886,325.095C345.133,327.021 340.511,327.862 336.801,326.842C334.335,330.774 326.749,328.007 324.842,332.681C318.003,329.055 309.168,334.358 302.085,333.554C299.375,336.706 294.55,336.293 289.248,336.471C287.811,338.515 284.414,337.777 282.832,339.097C285.391,339.257 285.298,342.08 286.918,343.179C293.212,341.399 298.219,342.272 304.419,341.723C303.743,344.066 299.102,343.724 297.998,343.179C296.965,347.392 289.525,345.208 287.501,348.435C286.58,347.988 285.748,347.458 284.579,347.265C284.466,348.646 285.1,349.271 284.87,350.764C284.25,351.29 283.475,352.357 282.541,352.516C279.125,353.094 279.21,350.097 277.289,349.308C274.236,348.054 269.135,350.957 265.908,351.643C257.844,351.074 250.07,354.048 244.616,354.851C243.504,355.01 242.517,354.696 241.409,354.851C237.477,355.405 233.691,357.932 229.445,356.598C227.806,358.716 224.335,357.716 221.569,358.641C220.296,359.069 219.544,360.135 218.36,360.393C217.928,360.487 217.2,360.06 216.609,360.102C214.213,360.276 212.16,362.117 210.484,360.684C210.033,363.897 212.081,366.537 210.775,369.726C211.78,371.638 213.302,373.033 215.152,374.104C215.81,372.916 218.187,373.446 218.943,372.352C221.517,373.897 223.743,372.277 225.655,371.769C230.192,370.562 236.035,371.643 239.652,369.144C244.34,370.576 248.299,368.411 251.324,366.518C259.717,364.513 271.234,366.448 276.415,360.393C279.924,358.759 283.32,359.609 286.918,360.684C289.788,357.979 295.683,358.871 300.915,358.059C305.659,357.326 310.197,356.269 314.334,356.307C316.345,355.494 316.96,353.296 319.299,352.808C322.296,354.799 325.274,352.671 328.341,352.225C329.168,352.103 330.126,352.559 330.966,352.516C331.948,352.465 332.878,351.737 333.884,351.643C334.842,351.553 335.772,352.314 336.801,352.225C337.411,352.169 338.632,351.53 339.426,351.351C342.263,350.713 344.748,349.454 347.011,349.308C350.262,349.092 352.347,349.604 354.597,348.139C355.175,348.533 355.983,348.698 356.636,349.017C357.021,348.43 357.594,348.031 358.388,347.847C363.221,347.913 368.867,344.329 373.559,345.804C377.397,344.109 383.766,344.466 389.017,343.47C391.812,340.816 399.609,343.169 402.441,340.553C403.502,340.755 403.785,341.737 405.062,341.723C407.843,338.613 412.751,340.069 416.734,339.388C417.866,339.196 419.031,338.261 420.234,337.932C424.324,336.805 429.487,337.758 431.906,335.889C438.223,337.401 445.893,331.986 452.615,334.137C451.474,336.626 447.871,338.407 445.034,338.515C443.638,338.562 442.131,337.636 440.656,337.636C438.449,337.636 436.043,339.083 433.362,339.679C427.796,340.915 422.741,340.872 419.069,342.887C418.697,342.188 417.514,342.3 417.026,341.723C413.681,342.977 410.299,344.292 406.523,344.057C405.409,343.987 404.532,343.305 403.315,343.47C402.192,343.63 400.934,344.893 399.524,345.222C397.153,345.776 394.33,345.297 392.23,345.804C391.403,346.006 390.544,346.866 389.604,346.974C387.378,347.228 385.386,346.401 383.479,346.974C381.981,347.42 381.055,348.731 379.393,349.017C377.495,349.341 375.41,348.768 373.559,348.435C372.737,349.285 371.836,350.454 370.643,350.473C367.481,350.52 363.348,351.3 360.14,351.056C357.843,352.263 354.743,352.662 352.263,353.681C351.497,353.77 352.032,352.554 351.094,352.808C349.581,353.432 348.838,354.827 347.011,355.142C339.802,351.398 332.061,358.463 323.381,357.476C322.122,359.816 322.508,362.728 324.254,364.184C330.055,363.005 336.025,362.14 341.469,361.854C343.944,359.036 347.824,361.563 350.802,360.976C351.159,360.905 351.667,359.905 351.971,359.806C356.001,358.505 360.384,358.792 364.518,358.641C351.91,364.968 335.095,362.714 321.046,368.27C320.624,369.402 320.722,371.055 319.591,371.478C315.964,371.6 313.085,370.98 312.005,368.561C310.441,368.566 308.957,368.5 308.796,367.101C310.624,365.626 313.635,365.33 315.213,363.601C315.016,362.535 314.804,361.478 314.921,360.102C312.822,359.698 311.305,359.496 309.379,359.515C302.696,362.375 293.743,361.732 287.209,363.601C286.171,365.288 285.89,367.509 287.792,368.561C290.436,368.453 294.231,367.054 297.416,368.561C299.708,367.157 306.049,365.447 307.919,367.979C305.861,370.929 301.502,369.538 298.29,370.017C297.195,370.182 296.162,371.009 295.082,371.187C291.197,371.826 287.054,371.023 283.997,372.643C283.644,375.043 285.598,375.133 285.457,377.312C283.804,378.622 281.629,377.706 279.333,378.481C276.533,375.283 273.677,376.142 268.534,377.312C264.41,378.251 259.294,377.899 256.575,378.481C254.753,378.871 252.94,379.891 251.033,378.481C250.098,379.294 249.145,380.092 248.116,380.816C247.351,380.313 247.242,379.163 246.364,378.773C246.059,379.44 246.181,380.534 245.782,381.107C243.987,382.258 242.47,381.657 240.53,381.69C238.67,381.718 237.049,382.765 234.988,383.442C230.079,385.048 226.886,385.532 220.986,385.48C220.606,384.884 219.572,384.949 219.817,383.733C220.784,382.408 224.673,382.549 225.655,383.733C226.805,383.038 227.163,381.549 228.571,381.107C236.251,381.544 243.94,376.241 251.324,378.19C252.451,376.706 254.321,376.683 256.284,377.312C258.562,375.837 262.094,376.044 264.452,374.104C270.051,373.648 272.78,373.672 276.12,372.061C276.773,370.501 275.706,370.036 275.537,368.561C270.15,366.64 261.949,371.253 255.702,369.435C251.117,372.164 242.837,375.147 237.322,374.104C234.438,375.292 230.239,376.636 227.111,375.851C224.443,378.824 217.416,375.278 215.735,378.773C214.274,381.807 218.06,382.681 217.191,386.645C217.961,389.956 220.474,391.534 221.277,394.813C221.028,396.02 219.45,395.907 219.525,397.439C220.484,398.232 221.907,398.557 222.733,399.482C222.907,401.159 223.518,402.389 224.485,403.272C223.358,407.814 227.938,410.022 228.281,414.653C229.455,413.69 230.22,412.314 231.78,411.736C234.631,413.38 236.204,411.107 239.069,412.61C237.914,414.179 236.782,415.766 233.527,415.236C232.742,416.786 230.544,416.917 229.154,417.861C229.769,421.135 231.263,423.526 233.235,425.447C236.824,424.926 239.375,426.114 242.574,425.738C242.334,425.978 242.414,426.757 241.7,427.194C239.238,427.377 234.02,426.786 232.945,429.529C233.954,432.337 238.736,432.854 237.614,436.823C240.455,439.59 243.898,440.989 248.699,441.201C250.112,441.032 250.906,440.073 252.198,439.74C254.081,439.256 255.584,440.271 257.158,440.036C257.13,440.041 257.581,439.251 258.036,439.158C260.976,438.57 262.136,437.457 264.452,437.114C267.045,436.729 271.019,437.269 273.79,436.527C274.165,437.124 275.199,437.063 274.954,438.284C274.588,439.082 273.466,439.125 272.912,439.74C270.267,438.12 267.383,441.22 264.161,440.036C262.554,440.778 261.216,440.961 259.201,440.322C258.637,440.44 258.97,441.454 258.036,441.201C256.843,441.417 257.031,440.257 255.702,440.618C254.293,441.201 254.086,442.68 252.489,443.239C248.75,444.559 242.723,442.704 239.948,444.409C238.248,448.274 241.136,449.129 242.282,451.407C242.635,452.117 242.461,453.004 242.865,453.746C243.837,455.513 246.552,456.875 245.199,459.867C247.581,462.939 247.172,468.786 250.742,470.665C252.503,474.249 252.47,479.632 255.115,482.333C254.438,484.733 258.041,486.734 256.867,489.627C261.564,492.614 260.704,501.154 263.87,505.672C264.18,509.153 266.989,510.13 266.787,514.131C268.976,515.531 268.158,517.964 268.534,520.843C269.22,526.029 272.371,530.294 274.081,534.258C275.025,534.427 275.438,534.061 276.12,533.972C275.979,530.477 278.417,525.7 277.872,522.591C277.487,520.378 274.137,518.058 277.289,516.175C278.337,516.513 280.056,516.17 281.662,515.592C285.96,521.163 279.436,530.125 284.579,535.136C286.519,534.836 285.998,532.074 287.792,531.637C289.853,531.196 290.554,535.414 291.582,537.757C296.96,539.552 298.651,533.093 301.502,530.463C302.155,530.148 302.963,529.984 303.546,529.599C303.493,528.861 303.992,528.687 304.419,528.424C304.221,527.067 304.879,526.55 305.001,525.508C306.415,522.779 309.685,522.361 312.005,520.843C313.86,519.627 314.395,517.128 316.669,516.762C317.153,514.808 318.91,514.131 320.173,512.967C321.37,509.885 323.63,507.866 326.589,506.546C326.842,505.733 327.289,505.104 327.463,504.216C327.951,504.216 328.435,504.211 328.924,504.216C330.995,501.229 334.231,499.402 337.383,497.504C337.754,496.377 337.336,496.156 337.674,494.874C342.104,491.52 344.875,486.518 349.929,483.793C350.553,481.886 352.159,480.966 352.554,478.829C355.203,477.1 358.181,475.705 359.262,472.412C364.926,469.134 367.458,462.718 373.851,460.163C374.071,456.546 376.828,455.874 378.806,454.329C381.116,452.525 382.982,448.711 385.518,446.156C387.552,444.118 389.449,442.309 391.061,440.036C395.264,437.908 397.284,433.944 400.689,431.281C404.555,428.256 408.416,425.691 410.604,421.069C411.497,421.281 411.671,420.769 412.357,420.778C417.237,416.029 420.078,409.242 426.359,405.898C427.19,404.785 427.744,403.394 428.989,402.69C428.017,401.243 429.426,400.727 430.154,399.482C438.941,397.669 441.45,389.581 448.533,386.062L448.533,383.733C454.531,380.196 456.974,373.108 462.826,369.435C462.624,368.261 463.108,367.772 463.117,366.809C463.915,367.025 463.704,366.232 464.287,366.227C465.757,366.02 466.415,366.626 467.495,366.809C469.618,365.532 470.012,362.521 471.581,360.684C474.45,358.693 477.076,356.462 478.584,353.099C477.395,351.117 473.61,353.108 472.163,352.516C473.718,349.886 478.401,349.318 481.792,350.182C482.976,348.449 485.996,348.552 487.33,346.974C487.353,342.812 490.824,342.103 491.416,338.515C490.312,337.43 489.176,338.19 488.208,337.054C491.468,336.33 495.733,335.386 497.541,332.39C499.551,332.014 501.28,333.212 502.21,332.972C502.008,329.365 504.582,328.533 505.127,325.678C509.401,325.574 511.106,322.906 513.004,320.426C513.121,317.167 509.274,316.542 506.587,317.801C505.949,318.411 506.733,318.632 506.587,319.553C505.845,318.928 505.479,317.937 504.253,317.801C500.838,318.266 496.202,320.966 492.877,318.674C490.519,319.773 487.062,321.619 484.709,319.553C486.376,317.495 488.044,318.486 490.543,318.383C493.957,318.242 495.568,315.25 499.002,316.636C499.852,316.415 499.565,315.058 500.754,315.175C507.607,315.894 514.549,313.047 520.007,313.714C521.04,312.902 521.35,311.361 522.341,310.506C521.843,309.172 521.369,307.552 521.468,306.424C519.636,306.03 516.855,307.519 515.92,305.842C517.827,304.766 521.463,303.113 523.215,305.255C525.145,303.789 527.973,305.227 529.049,304.673C527.865,304.738 529.26,303.155 529.34,302.629C532.834,302.648 533.99,298.261 536.925,296.796C536.212,295.471 534.572,295.067 532.844,294.752C535.639,290.159 538.424,284.33 545.094,284.546C544.962,285.574 544.445,286.227 544.511,287.463C547.733,288.566 551.209,285.513 549.471,282.503C548.151,282.737 546.831,282.977 545.676,283.376C542.891,282.178 542.351,278.731 541.012,276.082C536.531,272.399 534.023,266.739 528.757,263.832C526.874,259.492 523.149,256.993 520.589,253.329C519.904,253.235 519.495,252.869 518.546,253.038C514.939,248.379 509.828,245.222 506.296,240.492C505.47,240.445 505.08,239.957 504.253,239.91C501.252,233.964 495.69,230.582 492.003,225.326C489.016,224.884 486.78,221.62 485,220.07C484.375,219.53 483.459,219.454 482.957,218.905C482.163,218.041 481.801,216.373 480.914,215.406C477.748,211.939 471.153,209.412 470.702,204.316C469.233,202.874 468.932,200.253 468.077,198.191C466.25,198.074 465.588,196.791 465.16,195.274C459.693,194.908 457.387,191.38 455.24,187.689C450.835,186.552 449.496,182.348 447.072,179.229C440.238,177.407 437.631,171.362 434.527,165.81C430.783,163.137 428.101,159.403 425.484,155.598C425.645,153.983 424.78,153.391 424.32,152.39C423.432,151.991 423.277,152.531 421.986,152.39C417.744,149.145 414.306,145.096 411.774,140.136C407.086,137.435 404.949,132.184 399.816,129.929C398.923,128.389 397.843,127.041 396.899,125.552C394.156,125.011 393.738,122.344 392.23,120.883C391.431,120.117 390.2,120.131 389.313,119.427C385.41,116.327 382.944,110.587 377.059,109.798C375.429,106.082 373.132,103.029 370.934,99.882C367.481,99.347 365.795,97.045 365.1,93.753C357.241,91.59 356.03,82.783 349.346,79.458C347.735,75.916 344.132,74.362 343.216,70.125C341.474,68.711 339.581,68.58 337.97,67.499C334.4,65.104 333.231,59.58 328.924,58.453C327.937,56.424 325.269,56.076 324.842,53.493C321.296,51.886 320.06,47.964 316.669,46.198C316.589,44.723 315.504,44.258 315.213,42.99L313.752,42.99C308.28,36.894 303.062,30.543 296.542,25.489C296.528,24.526 296.049,24.038 296.251,22.864C294.513,22.07 293.085,20.971 291.874,19.655C291.282,20.13 290.347,20.266 289.835,20.82C290.333,22.652 291.08,24.244 290.999,26.654C289.455,27.763 286.862,26.339 284.87,27.236C285.325,30.181 286.228,32.661 287.501,35.409C289.243,33.981 291.432,33.361 293.917,33.366C295.133,35.747 295.091,39.388 297.416,40.661C296.02,43.159 300.835,47.086 296.834,49.115C292.879,47.823 291.789,43.662 289.835,40.365C290.366,38.453 289.328,37.448 287.792,36.865C287.397,38.984 288.548,41.224 287.501,43.577C285.57,43.399 284.508,44.085 282.541,43.869C280.238,39.411 282.334,31.018 281.371,26.363C280.845,25.818 279.901,25.696 279.037,25.489C277.528,27.199 277.393,28.495 276.12,30.449C275.833,34.428 276.256,38.049 275.246,41.534C275.03,42.281 274.044,42.835 273.79,43.577C273.442,44.573 273.898,46.339 273.499,47.659C273.203,48.622 272.4,49.355 272.329,49.994C272.029,52.704 273.743,55.437 272.621,58.453C272.724,59.326 273.503,59.514 274.081,59.914C272.512,60.097 272.329,61.666 271.164,62.243C271.465,64.545 269.553,66.128 269.121,68.373C268.13,73.465 270.14,79.2 267.369,83.253C269.149,90.75 263.165,96.2 264.161,103.964C263.724,104.791 262.874,105.209 262.7,106.299C263.546,109.695 261.146,111.691 261.535,114.758L260.37,114.758C260.399,116.054 259.553,116.472 259.783,117.966C257.952,119.056 258.055,121.399 257.745,122.635C257.745,122.475 257.505,122.306 257.454,122.635C258.323,122.639 257.824,124.011 258.327,124.387ZM516.503,322.178C515.765,322.568 517.55,322.855 517.381,323.634C516.606,327.43 513.337,328.731 511.839,331.802C508.156,333.531 505.333,334.992 504.253,339.679C502.459,340.022 502.168,341.878 500.754,342.596C499.476,342.606 498.476,342.343 497.541,342.014C496.822,345.973 494.493,349.834 490.251,349.308C489.885,350.21 489.796,351.384 489.664,352.516C485.437,357.232 481.491,362.234 476.249,365.936C474.084,368.435 471.304,370.327 469.829,373.521C465.175,376.255 461.684,380.158 457.284,383.146C453.667,387.796 450.515,392.906 445.034,395.691C444.484,396.114 444.996,397.598 444.447,398.021C440.605,398.632 438.364,401.323 438.613,404.442C436.043,406.457 433.94,410.449 430.154,410.276C428.2,412.99 425.654,415.109 421.986,416.109C421.464,418.312 420.948,420.515 420.524,422.821C418.397,423.996 417.059,425.964 415.861,428.073C411.704,429.853 410.332,434.409 406.231,436.241C403.653,441.633 398.895,444.85 394.559,448.491C393.39,451.793 391.37,454.249 388.144,455.494C382.803,461.144 378.294,467.621 370.643,470.956C367.894,475.212 362.403,476.72 361.887,483.206C358.853,485.231 355.213,486.644 354.306,490.792C351.422,493.164 347.519,494.512 346.133,498.378C344.804,498.115 344.48,498.861 343.508,498.96C342.545,501.788 340.675,503.709 338.261,505.085C337.646,507.974 335.438,509.265 333.005,510.336C327.406,517.767 321.206,524.592 312.587,529.012C309.91,532.361 307.026,535.503 303.832,538.345C304.058,539.444 303.48,539.74 303.546,540.674C300.854,544.019 296.204,545.395 294.79,550.017C293.479,550.355 292.888,551.416 291.874,552.055C291.784,552.938 292.198,554.324 291.291,554.39C290.727,555.381 288.876,555.089 288.374,556.137C287.914,557.527 288.496,557.522 288.083,558.767C286.387,559.993 284.321,562.172 281.953,561.097C281.131,560.726 279.187,559.594 278.454,558.767C278.003,558.255 278.14,557.259 277.58,556.719C276.214,555.413 274.1,554.831 272.912,553.22C270.502,549.946 269.22,546.405 267.078,544.469C267.322,543.666 268.425,542.755 267.66,541.844C265.946,541.398 266.04,542.75 265.617,543.591C260.629,540.421 257.11,535.766 253.95,530.764C246.965,526.048 242.09,516.771 233.527,512.671C229.399,506.884 224.382,501.985 220.108,496.334C213.645,493.366 210,487.584 205.523,482.624C202.602,480.783 199.807,478.81 198.229,475.625C193.917,472.934 190.878,468.97 187.726,465.118C182.17,462.023 180.328,455.212 174.307,452.572C172.114,448.26 168.121,445.733 164.392,442.953L164.392,441.492C161.386,439.143 160.108,435.076 155.636,434.198C154.664,430.214 149.483,430.435 149.512,425.447C144.382,422.309 141.17,417.255 137.844,412.319C132.297,412.549 131.583,406.64 127.05,405.024C122.541,398.448 115.651,394.249 110.71,388.106C106.482,386.791 103.772,383.963 101.959,380.229C97.173,377.044 94.632,371.614 89.418,368.853C86.28,362.944 79.549,360.633 76.29,354.851C73.523,354.311 72.241,352.281 71.33,349.891C70.343,348.158 68.638,348.228 67.243,347.265C64.805,345.584 63.796,342.981 61.992,340.553C58.272,335.537 52.424,332.324 49.155,326.842C46.036,324.907 43.678,322.211 41.283,319.553C40.249,319.416 39.597,318.9 38.361,318.97C37.676,317.617 36.807,316.443 35.444,315.757C35.13,314.578 35.13,313.728 35.444,312.549C33.119,310.741 31.616,309.219 28.155,309.05C26.248,305.894 23.857,303.235 19.982,302.047C18.897,299.975 16.844,298.937 15.026,297.087C13.289,295.321 11.894,292.413 9.775,291.253C6.844,289.647 3.012,290.074 0.729,287.171C-2.536,279.891 6.06,278.271 8.902,274.334C9.385,271.272 12.152,269.238 14.444,267.331C16.083,265.964 17.131,263.541 18.235,262.662C20.588,260.793 24.12,260.187 26.694,258.289C29.258,256.397 30.959,254.259 32.528,250.995C35.407,249.788 37.121,247.421 38.361,244.579C39.592,243.696 40.921,243.7 41.865,242.827C43.824,241.009 44.195,237.482 45.656,235.532C46.924,233.846 50.123,232.644 51.781,230.864C53.044,229.511 53.406,227.801 53.829,225.908C57.492,221.31 62.372,217.923 67.826,215.114C71.367,209.802 76.914,206.5 80.663,201.399C81.818,201.291 82.786,200.99 83.579,200.525C85.782,196.791 88.915,193.997 92.626,191.775C94.336,189.694 95.721,187.285 97.877,185.65L99.625,185.65C100.174,181.333 104.509,180.803 105.463,176.899C108.582,174.664 111.795,172.531 113.922,169.309C114.65,169.07 115.068,168.511 115.965,168.435C119.803,163.33 123.236,157.815 128.798,154.434C128.868,153.236 129.685,152.79 129.671,151.517C130.902,150.995 131.804,150.14 133.175,149.765C135.566,145.641 140.536,144.095 142.217,139.262C144.443,137.6 146.717,135.984 147.764,133.137C151.428,132.522 152.776,129.596 154.18,126.717C158.675,123.537 163.208,120.385 165.847,115.34C170.521,111.846 174.777,107.928 178.393,103.382C180.831,103.095 181.94,101.484 182.771,99.591C183.762,99.215 184.457,98.553 185.392,98.13C190.465,91.529 198.126,87.523 203.189,80.914C204.114,80.966 204.166,80.139 205.232,80.332C207.121,76.513 211.165,74.667 213.692,71.29C215.007,69.533 215.317,66.954 218.069,66.33C219.234,64.489 219.929,61.976 221.569,60.496C222.682,59.491 224.377,59.308 225.655,58.453C227.473,57.236 227.989,55.39 229.445,53.789C229.962,53.216 230.808,53.23 231.489,52.619C232.592,51.623 233.391,49.73 234.405,48.824C234.875,48.406 235.688,48.589 236.153,48.241C238.426,46.555 239.906,43.385 242.865,42.99C243.682,41.379 244.847,40.111 245.199,38.035C246.148,37.523 247.012,36.931 248.699,37.157C250.732,33.648 254.528,31.9 255.41,27.236C258.59,26.043 259.689,22.769 262.992,21.699C262.996,20.529 263.574,19.947 263.579,18.777C265.537,17.664 266.274,15.546 267.952,14.108C268.652,13.512 269.863,13.38 270.577,12.652C272.066,11.144 272.376,8.599 273.79,7.11C275.626,5.165 278.525,4.296 278.454,0.98C281.686,-1.547 284.466,1.501 287.501,2.441C288.407,5.616 290.314,7.795 293.334,8.862C295.138,11.426 296.932,14.033 299.168,16.443C300.328,17.697 302.131,18.453 303.254,19.655C303.668,20.102 303.686,20.989 304.128,21.403C305.241,22.455 306.843,22.821 307.919,23.737C310.145,25.63 311.366,28.237 313.461,30.449C314.156,31.182 315.034,31.29 315.795,31.905C316.594,32.558 316.988,34.01 317.839,34.822C318.487,35.447 319.431,35.489 319.881,35.992C320.929,37.161 321.366,38.711 322.508,39.782C326.087,43.15 330.398,45.658 332.714,50.285C337.637,54.31 341.643,59.251 345.551,64.287C346.209,64.606 347.011,64.77 347.594,65.16C348.398,66.499 349.14,67.899 350.22,68.955C351.445,68.8 351.849,69.463 352.846,69.538C355.043,72.891 359.858,75.155 359.844,79.749C360.896,79.96 361.319,80.806 362.761,80.623C363.813,83.272 366.016,84.761 368.308,86.17C368.491,87.927 369.67,88.697 370.055,90.252C378.665,96.623 384.673,105.589 393.686,111.55C394.024,112.283 394.851,112.527 394.851,113.593C397.843,114.589 399.331,117.088 400.689,119.718C401.497,120.563 402.568,121.141 403.897,121.47C412.323,134.049 425.776,141.597 433.653,154.725C445.231,163.081 451.22,177.026 463.117,185.063C464.085,187.209 465.978,188.431 467.204,190.314C467.537,190.662 467.533,191.347 467.495,192.066C468.364,192.634 468.5,193.691 469.242,194.401C471.698,196.74 475.672,198.144 477.997,200.525C478.387,200.925 478.424,201.888 478.875,202.277C479.998,203.259 481.27,203.273 482.083,204.316C483.131,205.673 483.337,207.454 484.709,208.985C485.723,210.121 487.626,211.761 489.082,212.78C490.599,213.837 492.548,213.973 493.751,215.406C494.826,216.683 495.333,218.858 496.376,220.361C498.26,223.081 501.491,224.701 502.501,228.243C508.842,231.916 512.853,237.923 517.381,243.409C518.607,243.644 519.274,244.433 520.589,244.579C522.337,247.012 523.6,249.929 526.714,250.995C528.076,253.043 529.744,255.509 531.965,257.12C532.506,257.51 533.483,257.529 534.009,257.998C535.484,259.313 536.174,262.042 539.26,262.08C542.557,267.148 547.48,270.586 551.219,275.208C551.157,276.148 551.735,276.443 551.51,277.543C554.685,278.552 557.132,280.286 558.513,283.085C556.235,289.464 550.401,292.282 546.846,297.378C545.422,297.124 544.911,297.777 543.929,297.96C541.923,301.014 540.871,305.02 535.761,304.964C532.144,307.284 531.28,312.347 527.301,314.297C527.48,315.645 526.644,315.978 526.714,317.218C524.46,318.848 521.472,319.755 520.007,322.178C518.701,321.253 517.471,322.413 516.503,322.178Z"/>
            </clipPath>
            <g clip-path="url(#_clip2)">
                <rect x="-5" y="-5" width="568.513" height="571.386" style="fill:rgb(250,95,75);fill-rule:nonzero;"/>
            </g>
        </g>
    </g>
</svg>
