<svg xmlns="http://www.w3.org/2000/svg" class="c-symbol-set">
    <symbol id="facebook" viewBox="0 0 44 44">
      <title>facebook symbol</title>
      <path fill-rule="evenodd" d="M24.753 12.885c0-1.086.87-1.967 1.944-1.967h3.887V5.346h-4.859c-3.936 0-7.126 3.229-7.126 7.211v4.916h-5.183v5.9H18.6v15.405h6.154V23.373h5.183l.648-5.9h-5.83v-4.588z"/>
    </symbol>
    <symbol id="github" viewBox="0 0 44 44">
      <title>github symbol</title>
      <path fill-rule="evenodd" d="M10.996 31.101l.003-.009c.053-.194-.053-.452-.266-.581-.213-.13-.478-.065-.532.129-.106.194.054.452.266.582.157.095.342.085.45-.004-.047.142.015.335.166.474.145.18.435.269.58.134.145-.09.096-.358-.097-.581-.189-.175-.424-.265-.57-.144zM22.173 4.105C11.908 4.105 3.61 12.404 3.61 22.67c0 8.206 5.317 15.152 12.693 17.61.922.185 1.26-.399 1.26-.89 0-.43-.03-1.906-.03-3.443-5.164 1.107-6.24-2.213-6.24-2.213-.83-2.151-2.059-2.704-2.059-2.704-1.69-1.137.123-1.137.123-1.137 1.875.123 2.858 1.905 2.858 1.905 1.66 2.828 4.334 2.029 5.41 1.537.153-1.199.645-2.029 1.168-2.49-4.119-.43-8.452-2.028-8.452-9.159 0-2.028.737-3.688 1.905-4.978-.184-.462-.83-2.367.185-4.918 0 0 1.567-.492 5.102 1.906 1.475-.4 3.073-.615 4.64-.615 1.568 0 3.166.215 4.641.615 3.535-2.398 5.102-1.906 5.102-1.906 1.014 2.551.37 4.456.185 4.918 1.198 1.29 1.905 2.95 1.905 4.978 0 7.13-4.333 8.698-8.483 9.16.677.583 1.26 1.69 1.26 3.442 0 2.49-.03 4.487-.03 5.101 0 .492.338 1.076 1.26.892 7.376-2.459 12.693-9.405 12.693-17.611.031-10.265-8.298-18.564-18.533-18.564zm-9.83 28.73c-.178.118-.445 0-.578-.198-.178-.197-.178-.474 0-.553.178-.118.445 0 .578.198.178.197.178.434 0 .553zm.928 1.02c-.111.154-.37.115-.593-.078-.185-.192-.26-.462-.111-.578.111-.154.37-.115.593.077.185.155.222.424.11.578zm1.317.621c-.034.228-.268.32-.501.228-.234-.09-.368-.364-.334-.547.033-.228.267-.319.5-.228.234.091.368.32.335.547zm1.485.08a.425.425 0 0 1-.423.422.425.425 0 0 1-.423-.422c0-.235.196-.423.423-.423.228 0 .423.188.423.423zm1.436-.283a.463.463 0 0 1-.368.506c-.234.046-.435-.092-.469-.322a.463.463 0 0 1 .368-.506c.235-.046.436.092.469.322z"/>
    </symbol>
    <symbol id="instagram" viewBox="0 0 44 44">
      <title>instagram symbol</title>
      <path fill-rule="evenodd" d="M22.371 13.82c-4.507 0-8.242 3.67-8.242 8.242a8.217 8.217 0 0 0 8.242 8.242c4.572 0 8.242-3.735 8.242-8.242 0-4.507-3.734-8.242-8.242-8.242zm13.393-5.087c-1.674-1.738-4.056-2.64-6.76-2.64H15.738c-5.602 0-9.337 3.735-9.337 9.337v13.2c0 2.769.902 5.151 2.705 6.89 1.738 1.674 4.056 2.511 6.696 2.511H28.94c2.769 0 5.087-.901 6.761-2.511 1.739-1.674 2.64-4.057 2.64-6.826V15.43c0-2.705-.901-5.023-2.576-6.697zm-13.393 18.61c-2.897 0-5.28-2.383-5.28-5.28 0-2.898 2.383-5.28 5.28-5.28 2.898 0 5.28 2.382 5.28 5.28 0 2.897-2.382 5.28-5.28 5.28zm8.435-11.72a1.867 1.867 0 1 0 0-3.735 1.867 1.867 0 0 0 0 3.735zm4.572 13.071c0 1.996-.58 3.606-1.738 4.7-1.16 1.096-2.77 1.675-4.7 1.675H15.802c-1.931 0-3.541-.58-4.7-1.674-1.16-1.16-1.739-2.769-1.739-4.765v-13.2c0-1.932.58-3.542 1.739-4.7 1.095-1.095 2.769-1.675 4.7-1.675h13.265c1.932 0 3.541.58 4.7 1.739 1.095 1.159 1.739 2.769 1.739 4.636v13.264h-.129z"/>
    </symbol>
    <symbol id="twitter" viewBox="0 0 44 44">
      <title>twitter symbol</title>
      <path fill-rule="evenodd" d="M37.017 12.737a11.96 11.96 0 0 1-3.522.967 6.157 6.157 0 0 0 2.702-3.407 12.365 12.365 0 0 1-3.905 1.495 6.102 6.102 0 0 0-4.473-1.945c-3.39 0-6.135 2.758-6.135 6.165 0 .484.054.956.164 1.407-5.108-.264-9.625-2.715-12.654-6.44a6.19 6.19 0 0 0-.831 3.099 6.164 6.164 0 0 0 2.734 5.132 6.109 6.109 0 0 1-2.778-.77v.078c0 2.99 2.11 5.473 4.921 6.044a6.059 6.059 0 0 1-2.778.11 6.155 6.155 0 0 0 5.731 4.286 12.307 12.307 0 0 1-9.088 2.55 17.31 17.31 0 0 0 9.405 2.77c11.287 0 17.456-9.397 17.456-17.54 0-.264-.011-.54-.022-.803a12.529 12.529 0 0 0 3.073-3.198z"/>
    </symbol></svg>