<svg xmlns="http://www.w3.org/2000/svg" width="500" height="500" viewBox="0 0 500 500">
  <path fill="#E9F6F7" fill-rule="evenodd" d="M360.993784,80.3139926 L352.254388,62.6757136 L367.744989,55 C379.012845,77.7440397 390.280701,100.487647 401.552879,123.231255 L386.062278,130.906968 L368.786628,96.0418795 C367.334384,97.1038327 365.88214,98.159735 364.421252,99.2074252 C361.322268,101.429012 358.19735,103.610836 355.024889,105.723505 C352.894067,107.140739 350.746821,108.525557 348.573209,109.872773 C346.797668,110.973193 344.997059,112.036011 343.176135,113.059497 C333.906411,118.26899 323.857835,122.532795 313.191191,123.626732 C311.568222,123.793135 309.938338,123.884764 308.307157,123.899028 C305.748873,123.921503 303.184107,123.763744 300.648732,123.41754 C299.837463,123.306892 299.02922,123.178524 298.222706,123.03719 C301.674811,132.896456 303.802607,143.222514 304.565035,153.637177 C304.99509,159.519197 304.988174,165.435794 304.505822,171.313923 C304.249518,174.438409 303.866575,177.556843 303.318958,180.644158 C302.481757,185.363518 301.217095,189.997299 299.680137,194.534697 C298.217952,198.853393 296.509837,203.08046 294.747694,207.284187 C293.266492,210.782106 291.762815,214.270517 290.29674,217.775352 C289.015221,220.870879 287.767415,223.980669 286.637172,227.135409 C285.127876,231.348645 283.819992,235.636222 282.831948,240.003326 C281.217191,247.142229 280.495391,254.45272 280.658768,261.769695 C280.789298,267.632265 281.4843,273.475817 282.815956,279.188408 C283.808322,283.446595 285.148622,287.613151 286.698115,291.699748 C288.838877,297.345778 291.352642,302.842262 293.735014,308.388018 C294.236384,309.565805 294.732135,310.745753 295.222699,311.928294 C297.030656,316.361096 298.711542,320.842305 300.086852,325.429839 C301.794102,331.123845 303.037586,336.949677 303.787912,342.846824 C304.949275,351.973485 304.962241,361.239751 303.79915,370.366844 C302.620066,379.621009 300.243313,388.705744 296.83832,397.388088 C294.725219,402.777382 292.220531,408.008485 289.383037,413.052439 L314.769209,413.052439 L314.769209,430.341056 L206.926276,430.341056 L206.926276,413.052439 C207.566819,412.155592 207.640728,412.127066 208.314552,411.164954 C208.986647,410.184257 208.98535,410.186418 209.649233,409.197077 C211.273931,406.724805 212.829906,404.211905 214.273938,401.62985 C217.416144,396.011049 220.07643,390.118657 222.135072,384.017504 C224.316463,377.552858 225.815818,370.858273 226.540212,364.072491 C227.545545,354.656246 227.059734,345.068411 225.097476,335.803874 C224.042439,330.821295 222.532278,325.951523 220.734694,321.189374 C218.468156,315.185037 215.780209,309.351426 213.262554,303.451253 C212.770693,302.286 212.285315,301.118587 211.805988,299.948147 C210.572445,296.878986 209.398116,293.787349 208.369443,290.642981 C207.024821,286.531748 205.914892,282.344445 205.09325,278.096632 C204.059391,272.751856 203.482816,267.324095 203.318142,261.883368 C203.168595,256.948332 203.347532,252.00422 203.883479,247.095549 C204.399545,242.365384 205.248848,237.674982 206.393354,233.05676 C207.775147,227.480749 209.593909,222.024894 211.657738,216.666287 C213.962311,210.683129 216.570298,204.824017 219.047757,198.912174 C219.504609,197.809161 219.957139,196.705283 220.404049,195.598379 C222.486031,190.352148 224.380431,185.021635 225.557354,179.491439 C226.050079,177.176061 226.406225,174.833021 226.673334,172.481337 C227.197611,167.869166 227.341971,163.227605 227.193721,158.589934 L227.192857,158.566594 C227.051522,158.470642 227.052819,158.471507 226.909756,158.376851 C226.031926,157.954145 225.149342,157.541811 224.264165,157.1338 C222.198608,156.19935 220.109278,155.320656 217.96938,154.568169 C215.136208,153.571913 212.23172,152.776636 209.28574,152.191417 C206.451271,151.62824 203.599514,151.248323 200.706264,151.231034 C192.527451,151.181761 184.583332,153.814818 177.274569,157.307118 C172.263464,159.70116 167.467601,162.529577 162.810048,165.547737 C157.399143,169.053869 152.169337,172.833161 147.026406,176.718777 C142.757414,179.944401 138.541152,183.242637 134.310196,186.516668 L132.211358,186.05074 L98.4471214,120.470695 C101.610506,118.021762 104.769136,115.567643 107.942894,113.132542 C110.451905,111.217395 112.970856,109.316079 115.516173,107.449773 C117.750726,105.812109 120.002136,104.197352 122.275157,102.613715 C136.811859,92.4851788 152.389334,83.4782417 169.405223,78.2428163 C172.607075,77.2577974 175.850852,76.4080619 179.127477,75.7104662 C183.366213,74.8080004 187.660274,74.1605417 191.978538,73.7931586 C194.133996,73.609467 196.291616,73.5148119 198.453989,73.4504118 C199.489145,73.4378775 200.523869,73.4326909 201.558593,73.4357164 C204.57416,73.4966588 207.58454,73.6384255 210.585844,73.9457306 C214.110561,74.3070627 217.617556,74.857273 221.09084,75.5548686 C228.545691,77.0524951 235.851861,79.20925 242.915557,82.0238368 C246.647305,83.5106578 250.30817,85.1673395 253.914575,86.9351006 C258.917036,89.3870587 263.821385,92.0317848 268.770251,94.5892034 C269.96792,95.1964661 271.16775,95.7976777 272.372334,96.3915417 C275.434148,97.8757695 278.524057,99.2882495 281.695653,100.523953 C285.894626,102.160753 290.199059,103.509697 294.575673,104.584185 C295.883557,104.905321 297.197491,105.200956 298.514884,105.478871 C299.791216,105.748573 301.071438,106.004445 302.361601,106.19851 C303.752038,106.40727 305.154145,106.539095 306.559277,106.589665 C308.183111,106.647581 309.810402,106.593554 311.426887,106.428016 C316.17607,105.940477 320.792563,104.53448 325.18344,102.696268 C332.338334,99.700583 339.00007,95.6226305 345.44008,91.3341891 C348.447435,89.3313029 351.411568,87.2622877 354.346311,85.1561019 C356.57222,83.5586337 358.785163,81.9408514 360.993784,80.3139926 Z M277.029023,117.247232 C273.76839,116.030114 270.560487,114.671228 267.412663,113.186568 C261.926984,110.599327 256.586099,107.725959 251.205017,104.93039 C249.872929,104.243599 248.536519,103.566318 247.194922,102.898113 C243.141606,100.898684 239.029076,99.022437 234.802009,97.4176211 C229.900254,95.5569338 224.862784,94.0554174 219.741031,92.9338184 C212.872696,91.4301409 205.856543,90.5717611 198.81705,90.736003 C194.914145,90.8267682 191.025071,91.1729728 187.170574,91.7906086 C185.068278,92.1277366 182.978948,92.5422312 180.906043,93.0276091 C165.143579,96.7165677 150.649667,104.448469 137.244074,113.338276 C134.805947,114.955626 132.396346,116.616198 130.010517,118.309618 C126.949999,120.4815 123.933136,122.712164 120.936154,124.970057 L120.413606,125.366831 L138.873958,161.222558 C140.151587,160.271252 141.436564,159.329886 142.724133,158.391979 C145.348113,156.501901 147.990678,154.639485 150.677329,152.839308 C152.887679,151.358105 155.123961,149.915802 157.392228,148.525365 C159.043723,147.513117 160.712075,146.52853 162.399876,145.578521 C168.17557,142.327396 174.192009,139.454893 180.490252,137.365131 C186.761266,135.284014 193.314083,134.006817 199.932598,133.943714 C202.01458,133.923832 204.097426,134.018487 206.168602,134.230273 C208.347832,134.453728 210.511503,134.808145 212.659181,135.234741 C215.603865,135.819961 218.515268,136.569855 221.376102,137.479236 C224.602158,138.504451 227.750847,139.746638 230.838162,141.132321 C231.829232,141.57707 232.814251,142.035219 233.794515,142.50374 C234.336513,142.762637 234.88802,143.003813 235.418781,143.285618 C235.504359,143.331001 236.541244,144.018223 236.673934,144.107259 C237.298918,144.52478 237.915257,144.956131 238.519494,145.402609 C240.582458,146.927897 242.603065,148.688743 243.596729,151.122116 C243.824074,151.679674 243.999121,152.226426 244.119709,152.818561 C244.177194,153.100366 244.200101,153.388221 244.240297,153.673051 C244.300375,154.572491 244.355699,155.471932 244.403675,156.372669 C244.680725,162.399048 244.532907,168.436665 243.851736,174.433654 C243.469657,177.795426 242.927227,181.137315 242.169553,184.435551 C241.173297,188.772401 239.837751,193.023239 238.308141,197.200169 C237.13165,200.414123 235.836301,203.581398 234.513722,206.737435 C233.047647,210.198616 231.559529,213.650288 230.109446,217.117952 C228.841759,220.179766 227.607784,223.255411 226.489642,226.376007 C224.997635,230.541699 223.704446,234.780868 222.727639,239.098267 C221.131036,246.155049 220.41788,253.38169 220.579096,260.614383 C220.708329,266.409095 221.394687,272.185222 222.711215,277.831684 C223.692344,282.041462 225.017517,286.160475 226.549288,290.200393 C228.667576,295.785913 231.153247,301.223615 233.510982,306.709725 C234.007165,307.875842 234.498162,309.043688 234.98354,310.21456 C236.684307,314.382846 238.273131,318.594353 239.592685,322.900083 C241.234239,328.255232 242.468646,333.730104 243.255711,339.276293 C244.573103,348.554661 244.688505,357.997271 243.573389,367.302437 C242.476858,376.454598 240.193464,385.449433 236.891339,394.051817 C234.365472,400.631432 231.257843,406.999262 227.645386,413.052439 L269.05292,413.052439 C270.321905,411.186565 271.541184,409.286978 272.702979,407.351085 C276.353038,401.266789 279.448565,394.844068 281.835691,388.160289 C284.214172,381.498985 285.881227,374.582673 286.726641,367.558308 C287.868122,358.071612 287.510679,348.398631 285.668577,339.021718 C284.668431,333.928923 283.199331,328.944615 281.411256,324.074844 C279.037528,317.609766 276.142117,311.353015 273.440339,305.022356 C272.943723,303.845001 272.453159,302.665918 271.968645,301.483376 C270.89459,298.810124 269.861595,296.121312 268.934493,293.393168 C267.54492,289.304843 266.377507,285.140879 265.491897,280.913812 C264.137766,274.449599 263.452705,267.858746 263.35805,261.257087 C263.259505,254.409066 263.807986,247.559749 265.026401,240.819781 C266.059828,235.10719 267.571286,229.491415 269.425922,223.992771 C271.033763,219.225002 272.903527,214.554915 274.844607,209.915082 C276.321487,206.423646 277.822139,202.942151 279.287349,199.445961 C282.217337,192.380535 284.95499,185.182852 286.296154,177.623836 C286.749548,175.068579 287.062472,172.486092 287.27469,169.900147 C287.683998,164.911516 287.687456,159.89047 287.322234,154.898814 C286.468608,143.235049 283.615986,131.692304 278.825311,121.018312 C278.255219,119.747166 277.655736,118.490284 277.029023,117.247232 Z"/>
</svg>
