<svg xmlns="http://www.w3.org/2000/svg" width="44" height="44" viewBox="0 0 44 44">
  <path fill="#000000" fill-rule="evenodd" d="M10.9964537,31.1013504 C10.9973953,31.0983636 10.9982852,31.0953445 10.9991224,31.0922933 C11.0523109,30.8984601 10.9459338,30.6400051 10.7331851,30.5107743 C10.5204416,30.3815435 10.2545043,30.4461525 10.2013157,30.6399986 C10.094944,30.8338383 10.2545043,31.0922933 10.467253,31.2215241 C10.6238607,31.3166528 10.8092865,31.306743 10.9174588,31.2175681 C10.8697831,31.3597706 10.9324447,31.5530066 11.0827345,31.6921552 C11.2277219,31.8711423 11.5177015,31.9606381 11.6626888,31.8263989 C11.8076762,31.7369031 11.7593455,31.4684247 11.5660274,31.2446897 C11.3772526,31.0699091 11.1423921,30.9804629 10.9964537,31.1013504 Z M22.1734433,4.10539977 C11.9081492,4.10539977 3.60986024,12.4036887 3.60986024,22.6689827 C3.60986024,30.8750691 8.9269125,37.8210432 16.3031693,40.2797958 C17.2252014,40.4642018 17.5632797,39.8802476 17.5632797,39.3884975 C17.5632797,38.9582155 17.5325475,37.4829653 17.5325475,35.9462457 C12.3691653,37.052683 11.2934632,33.733368 11.2934632,33.733368 C10.4636337,31.5819608 9.23425551,31.0287391 9.23425551,31.0287391 C7.54386435,29.8915665 9.35719333,29.8915665 9.35719333,29.8915665 C11.2319928,30.0145044 12.2154953,31.7971012 12.2154953,31.7971012 C13.8751513,34.6246649 16.549045,33.8255706 17.6247501,33.3338193 C17.7784201,32.1351794 18.2701714,31.3053499 18.7926579,30.8443339 C14.6742455,30.414053 10.3406959,28.8158645 10.3406959,21.6854802 C10.3406959,19.6570108 11.0783197,17.9973518 12.2462275,16.7065062 C12.0618223,16.2454902 11.416398,14.3399555 12.4306357,11.7890027 C12.4306357,11.7890027 13.9980891,11.2972514 17.5325475,13.6945343 C19.0077983,13.2949887 20.6059868,13.0798482 22.1734433,13.0798482 C23.7408966,13.0798482 25.3390883,13.2949887 26.814339,13.6945343 C30.3487944,11.2972514 31.9162477,11.7890027 31.9162477,11.7890027 C32.9304855,14.3399555 32.2850612,16.2454902 32.100656,16.7065062 C33.2992959,17.9973518 34.0061876,19.6570077 34.0061876,21.6854802 C34.0061876,28.8158645 29.6726348,30.3833178 25.5234904,30.8443339 C26.1996468,31.4282877 26.7836007,32.534725 26.7836007,34.2865866 C26.7836007,36.7760721 26.7528686,38.7738093 26.7528686,39.3884975 C26.7528686,39.8802476 27.0909468,40.4642018 28.0129789,40.2797958 C35.3892388,37.8210432 40.7062787,30.8750691 40.7062787,22.6689797 C40.7370139,12.4036887 32.407999,4.10539977 22.1734433,4.10539977 Z M12.3433067,32.8348513 C12.1653655,32.9533768 11.8984514,32.8348513 11.7649966,32.6373167 C11.5870554,32.4397782 11.5870554,32.1632267 11.7649966,32.0842097 C11.9429378,31.9656881 12.2098475,32.0842097 12.3433067,32.2817482 C12.5212435,32.4792867 12.5212435,32.7163298 12.3433067,32.8348513 Z M13.2708778,33.8544105 C13.1597407,34.0085324 12.9004156,33.970001 12.6781412,33.7773476 C12.4929101,33.584698 12.4188198,33.3149856 12.567004,33.1993913 C12.6781412,33.0452693 12.9374626,33.0838008 13.1597407,33.2764542 C13.3449681,33.4305722 13.382015,33.7002885 13.2708778,33.8544105 Z M14.5876804,34.4764508 C14.5542771,34.7044851 14.320461,34.7956961 14.086645,34.7044851 C13.8528255,34.6132696 13.7192192,34.3396274 13.7526191,34.1572054 C13.7860223,33.929171 14.0198384,33.83796 14.2536545,33.929171 C14.487474,34.0203866 14.6210803,34.2484164 14.5876804,34.4764508 Z M16.0726859,34.5555229 C16.0726859,34.7903064 15.8776367,34.9781322 15.650075,34.9781322 C15.4225165,34.9781322 15.2274673,34.7903064 15.2274673,34.5555229 C15.2274673,34.3207394 15.4225165,34.1329136 15.650075,34.1329136 C15.8776334,34.1329136 16.0726859,34.3207394 16.0726859,34.5555229 Z M17.5090213,34.2732766 C17.5424898,34.5031624 17.3751504,34.7330528 17.1408806,34.7790318 C16.9066042,34.8250062 16.7057996,34.6870738 16.672331,34.457188 C16.6388658,34.2272976 16.8062019,33.9974071 17.040475,33.9514327 C17.2747481,33.9054491 17.4755561,34.0433861 17.5090213,34.2732766 Z"/>
</svg>
