<svg xmlns="http://www.w3.org/2000/svg" width="44" height="44" viewBox="0 0 44 44">
  <path fill="#000000" fill-rule="evenodd" d="M22.3712188,13.8201287 C17.8638769,13.8201287 14.1292221,17.4903928 14.1292221,22.0621253 C14.1292221,26.6338579 17.7994863,30.304122 22.3712188,30.304122 C26.9429513,30.304122 30.6132155,26.5694673 30.6132155,22.0621253 C30.6132155,17.5547834 26.8785607,13.8201287 22.3712188,13.8201287 Z M35.7644634,8.73327134 C34.0903078,6.99472517 31.7078557,6.09325679 29.0034505,6.09325679 L15.7389871,6.09325679 C10.137005,6.09325679 6.40235025,9.82791153 6.40235025,15.4298936 L6.40235025,28.6299664 C6.40235025,31.3987622 7.30381863,33.7812144 9.10675541,35.5197605 C10.8453016,37.1939161 13.1633631,38.0309939 15.8033777,38.0309939 L28.9390599,38.0309939 C31.7078557,38.0309939 34.0259172,37.1295255 35.7000728,35.5197605 C37.438619,33.845605 38.3400874,31.4631528 38.3400874,28.694357 L38.3400874,15.4298936 C38.3400874,12.7254885 37.438619,10.4074269 35.7644634,8.73327134 Z M22.3712188,27.3421545 C19.4736418,27.3421545 17.0911897,24.9597023 17.0911897,22.0621253 C17.0911897,19.1645484 19.4736418,16.7820962 22.3712188,16.7820962 C25.2687958,16.7820962 27.6512479,19.1645484 27.6512479,22.0621253 C27.6512479,24.9597023 25.2687958,27.3421545 22.3712188,27.3421545 Z M30.8063873,15.6230654 C31.8376837,15.6230654 32.6737146,14.7870345 32.6737146,13.7557381 C32.6737146,12.7244416 31.8376837,11.8884107 30.8063873,11.8884107 C29.7750908,11.8884107 28.9390599,12.7244416 28.9390599,13.7557381 C28.9390599,14.7870345 29.7750908,15.6230654 30.8063873,15.6230654 Z M35.3781198,28.694357 C35.3781198,30.6904656 34.7986044,32.3002306 33.6395736,33.3948708 C32.4805428,34.4895109 30.8707779,35.0690263 28.9390599,35.0690263 L15.8033777,35.0690263 C13.8716597,35.0690263 12.2618948,34.4895109 11.102864,33.3948708 C9.94383319,32.23584 9.3643178,30.626075 9.3643178,28.6299664 L9.3643178,15.4298936 C9.3643178,13.4981757 9.94383319,11.8884107 11.102864,10.7293799 C12.1975042,9.63473973 13.8716597,9.05522434 15.8033777,9.05522434 L29.0678411,9.05522434 C30.9995591,9.05522434 32.609324,9.63473973 33.7683548,10.7937705 C34.862995,11.9528013 35.506901,13.5625663 35.506901,15.4298936 L35.506901,28.694357 L35.3781198,28.694357 Z"/>
</svg>
