<svg xmlns="http://www.w3.org/2000/svg" width="44" height="44" viewBox="0 0 44 44">
  <path fill="#000000" fill-rule="evenodd" d="M37.0170033,12.737069 C35.9123879,13.2316269 34.7312104,13.5613249 33.4953457,13.7041925 C34.7640227,12.9458806 35.7373998,11.7369734 36.1967393,10.2972842 C35.0046353,11.0006428 33.6922086,11.5171711 32.2923042,11.7919267 C31.1767404,10.5940102 29.5799622,9.84668892 27.8191443,9.84668892 C24.428725,9.84668892 21.6835816,12.605192 21.6835816,16.0121003 C21.6835816,16.4956676 21.7382688,16.9682442 21.8476322,17.4188285 C16.7401392,17.1550745 12.2232329,14.7042881 9.19373362,10.9786615 C8.66876511,11.8908427 8.36253439,12.9458806 8.36253439,14.0778532 C8.36253439,16.2209119 9.44528043,18.1002167 11.0967404,19.2102079 C10.090552,19.177236 9.14998606,18.9024913 8.31878792,18.4409054 L8.31878792,18.51784 C8.31878792,21.507125 10.4295939,23.9908791 13.2403565,24.5623607 C12.7263265,24.7052316 12.1794853,24.7821619 11.6217078,24.7821619 C11.2279819,24.7821619 10.8451935,24.7382025 10.462404,24.6722618 C11.2389183,27.1230427 13.5137771,28.9034293 16.1932991,28.9583794 C14.0934284,30.6068868 11.4467186,31.5959906 8.57033474,31.5959906 C8.07817767,31.5959906 7.5860207,31.5630208 7.10480061,31.5080708 C9.81713249,33.2554876 13.0434947,34.2775618 16.5104662,34.2775618 C27.7972695,34.2775618 33.9656336,24.8810713 33.9656336,16.7374512 C33.9656336,16.4736862 33.9546961,16.1989306 33.9437587,15.9351766 C35.1577485,15.0559674 36.1967393,13.9679575 37.0170033,12.737069 L37.0170033,12.737069 Z"/>
</svg>
