<svg xmlns="http://www.w3.org/2000/svg" width="389" height="89" viewBox="0 0 389 89">
  <g fill="none" fill-rule="evenodd" stroke="#4E388D" stroke-width="5">
    <ellipse cx="250.22" cy="45.136" rx="40.739" ry="40.022"/>
    <path d="M30.6666667,2.00100315 L30.6666667,18.1876353" transform="rotate(-25 31.5 10.177)"/>
    <path d="M28.9672063,8.35671374 C21.6370501,8.77960736 11.6285677,15.2639762 11.7695323,26.2592104 C11.9104968,37.2544446 20.3683693,42.6110972 27.8394899,47.1219625 C35.3106106,51.6328278 41.3720859,54.3111541 43.486554,59.1039485 C45.6010221,63.8967429 43.6275185,69.39436 38.9756887,72.0726863 C36.6625672,73.4044835 32.3503553,73.9052253 28.2623836,72.4955799 C24.1744119,71.0859345 21.2141565,67.561821 21.2141565,62.9099911 L8.1044542,62.9099911 C7.96348966,71.226899 12.7562841,77.7112679 19.6635466,81.0944169 C23.1266355,82.7906237 28.361445,84.0939595 33.4137455,84.0365996 C38.4384505,83.9795529 43.2826347,82.5704913 46.0239157,81.0944169 C49.6088723,79.1640557 54.9768313,75.4442511 57.0191499,67.4208564 C58.9926535,59.6678067 55.3477345,51.7585828 49.4070647,47.1219625 C43.6275185,42.6110972 38.1299014,40.2147 38.1299014,40.2147 L27.4165963,46.6990689"/>
    <path d="M110.666667,2.00100315 L110.666667,18.1876353" transform="rotate(-25 111.5 10.177)"/>
    <path d="M90.9916841,14.0665528 C92.3227648,16.6182706 93.5583135,20.2140581 93.4922173,24.7086005 C93.3512528,34.2941893 87.2897775,36.831551 87.2897775,45.9942462 C87.2897775,55.1569414 92.9283592,59.3858776 93.2102882,67.561821 C93.4922173,75.7377643 86.7259193,83.4908141 86.7259193,83.4908141"/>
    <path d="M109.07481 8.49767828C109.07481 8.49767828 102.87237 15.1230117 94.9783561 14.8410826 87.0843418 14.5591535 81.4457602 7.36996195 71.5782423 7.36996195 61.7107244 7.36996195 51.5612775 16.9555507 51.5612775 16.9555507L57.0588946 28.7965722C57.0588946 28.7965722 65.516767 21.8893097 70.3095614 21.184487 75.1023558 20.4796643 79.953827 23.7413511 79.953827 23.7413511 79.9623465 24.058967 79.9644331 24.3814022 79.9596214 24.7086005 79.8186568 34.2941893 73.7571816 36.831551 73.7571816 45.9942462 73.7571816 55.1569414 79.3957632 59.3858776 79.6776923 67.561821 79.9596214 75.7377643 73.1288522 83.4908141 73.1288522 83.4908141L96.8108951 82.9269559M350.472345 46.8400334L320.305934 7.36996195 305.645621 7.36996195 305.645621 83.4908141 320.305934 83.4908141 320.305934 32.7435793 342.296402 62.0642039 371.617027 9.62539461C371.617027 9.62539461 377.396573 15.1230117 377.255608 24.7086005 377.114644 34.2941893 371.053168 36.831551 371.053168 45.9942462 371.053168 55.1569414 376.69175 59.3858776 376.973679 67.561821 377.255608 75.7377643 370.48931 83.4908141 370.48931 83.4908141"/>
    <path d="M247.963359,-6.85659787 C247.963359,-6.85659787 253.742905,-1.35898077 253.601941,8.22660802 C253.460976,17.8121968 247.399501,20.3495585 247.399501,29.5122537 C247.399501,38.6749489 253.038083,42.9038851 253.320012,51.0798285 C253.601941,59.2557719 246.835643,67.0088216 246.835643,67.0088216" transform="rotate(90 250.22 30.076)"/>
    <path d="M364.850729,82.5 L383.176119,82.5"/>
    <ellipse cx="157.96" cy="45.136" rx="40.739" ry="40.022"/>
    <path d="M142.75415,9.62539461 C142.75415,9.62539461 148.533696,15.1230117 148.392731,24.7086005 C148.251767,34.2941893 142.190292,36.831551 142.190292,45.9942462 C142.190292,55.1569414 147.828873,59.3858776 148.110802,67.561821 C148.392731,75.7377643 141.626434,83.4908141 141.626434,83.4908141"/>
  </g>
</svg>
