<svg xmlns="http://www.w3.org/2000/svg" viewBox="0 0 500 500">
  <g fill="none" fill-rule="evenodd" stroke="#979797" stroke-width="8" transform="translate(127.75 7)">
    <path d="M123.847083,-1.06934074 L123.847083,90.1358594" transform="rotate(-25 125.965 44.999)"/>
    <path d="M118.141824,34.7425472 C76.8393251,37.1253837 20.4455283,73.6622098 21.2398072,135.615958 C22.034086,197.569707 69.6908157,227.752302 111.787594,253.169225 C153.884371,278.586147 188.038361,293.677445 199.952543,320.682925 C211.866726,347.688405 200.746822,378.66528 174.535621,393.756577 C161.502106,401.260722 137.204516,404.082202 114.17043,396.139414 C91.136344,388.196626 74.4564886,368.339655 74.4564886,342.128454 L0.588557655,342.128454 C-0.205721172,388.990904 26.799759,425.52773 65.7194215,444.590422 C85.2325429,454.14787 114.728602,461.491646 143.196295,461.168445 C171.508498,460.84701 198.80354,452.907511 214.249562,444.590422 C234.449359,433.713609 264.695662,412.753997 276.203311,367.545376 C287.323214,323.860041 266.785553,279.294726 233.312254,253.169225 C200.746822,227.752302 169.769948,214.249562 169.769948,214.249562 L109.404757,250.786388"/>
  </g>
</svg>
