<svg xmlns="http://www.w3.org/2000/svg" viewBox="0 0 500 500">
  <g fill="none" fill-rule="evenodd" stroke="#979797" stroke-width="8" transform="translate(52 12)">
    <path d="M330.079256,-1.06934074 L330.079256,90.1358594" transform="rotate(-25 332.197 44.999)"/>
    <path d="M222.968855,66.9152072 C230.468962,81.293117 237.430786,101.553942 237.05836,126.878891 C236.264081,180.889852 202.110091,195.18687 202.110091,246.814994 C202.110091,298.443118 233.881245,322.271483 235.469802,368.339655 C237.05836,414.407827 198.932976,458.093162 198.932976,458.093162"/>
    <path d="M324.860041,35.5368261 C324.860041,35.5368261 289.911772,72.867931 245.432158,71.2793733 C200.952543,69.6908157 169.18139,29.1825955 113.581872,29.1825955 C57.9823544,29.1825955 0.794278828,83.1935557 0.794278828,83.1935557 L31.7711531,149.912977 C31.7711531,149.912977 79.4278828,110.993315 106.433363,107.021921 C133.438843,103.050526 160.774943,121.428827 160.774943,121.428827 C160.822948,123.218466 160.834705,125.03526 160.807592,126.878891 C160.013314,180.889852 125.859324,195.18687 125.859324,246.814994 C125.859324,298.443118 157.630477,322.271483 159.219035,368.339655 C160.807592,414.407827 122.318939,458.093162 122.318939,458.093162 L255.757783,454.916047"/>
  </g>
</svg>
